  0
SECTION
  2
HEADER
  9
$ACADVER
  1
AC1015
  9
$ACADMAINTVER
 70
     6
  9
$DWGCODEPAGE
  3
ANSI_1252
  9
$INSBASE
 10
0.0
 20
0.0
 30
0.0
  9
$EXTMIN
 10
-22.6814278798
 20
-4.7146529563
 30
0.0
  9
$EXTMAX
 10
30.4952736977
 20
43.5214235773
 30
0.0
  9
$LIMMIN
 10
0.0
 20
0.0
  9
$LIMMAX
 10
12.0
 20
9.0
  9
$ORTHOMODE
 70
     0
  9
$REGENMODE
 70
     1
  9
$FILLMODE
 70
     1
  9
$QTEXTMODE
 70
     0
  9
$MIRRTEXT
 70
     1
  9
$LTSCALE
 40
1.0
  9
$ATTMODE
 70
     1
  9
$TEXTSIZE
 40
0.125
  9
$TRACEWID
 40
0.05
  9
$TEXTSTYLE
  7
Standard
  9
$CLAYER
  8
0
  9
$CELTYPE
  6
ByLayer
  9
$CECOLOR
 62
   256
  9
$CELTSCALE
 40
1.0
  9
$DISPSILH
 70
     0
  9
$DIMSCALE
 40
1.0
  9
$DIMASZ
 40
0.13
  9
$DIMEXO
 40
0.0
  9
$DIMDLI
 40
0.38
  9
$DIMRND
 40
0.0
  9
$DIMDLE
 40
0.0
  9
$DIMEXE
 40
0.125
  9
$DIMTP
 40
0.0
  9
$DIMTM
 40
0.0
  9
$DIMTXT
 40
0.125
  9
$DIMCEN
 40
0.09
  9
$DIMTSZ
 40
0.0
  9
$DIMTOL
 70
     0
  9
$DIMLIM
 70
     0
  9
$DIMTIH
 70
     1
  9
$DIMTOH
 70
     1
  9
$DIMSE1
 70
     0
  9
$DIMSE2
 70
     0
  9
$DIMTAD
 70
     0
  9
$DIMZIN
 70
     1
  9
$DIMBLK
  1

  9
$DIMASO
 70
     1
  9
$DIMSHO
 70
     1
  9
$DIMPOST
  1

  9
$DIMAPOST
  1

  9
$DIMALT
 70
     0
  9
$DIMALTD
 70
     2
  9
$DIMALTF
 40
25.4
  9
$DIMLFAC
 40
1.0
  9
$DIMTOFL
 70
     0
  9
$DIMTVP
 40
0.0
  9
$DIMTIX
 70
     0
  9
$DIMSOXD
 70
     0
  9
$DIMSAH
 70
     0
  9
$DIMBLK1
  1

  9
$DIMBLK2
  1

  9
$DIMSTYLE
  2
Standard
  9
$DIMCLRD
 70
     0
  9
$DIMCLRE
 70
     0
  9
$DIMCLRT
 70
     0
  9
$DIMTFAC
 40
1.0
  9
$DIMGAP
 40
0.06
  9
$DIMJUST
 70
     0
  9
$DIMSD1
 70
     0
  9
$DIMSD2
 70
     0
  9
$DIMTOLJ
 70
     1
  9
$DIMTZIN
 70
     1
  9
$DIMALTZ
 70
     0
  9
$DIMALTTZ
 70
     0
  9
$DIMUPT
 70
     0
  9
$DIMDEC
 70
     2
  9
$DIMTDEC
 70
     2
  9
$DIMALTU
 70
     2
  9
$DIMALTTD
 70
     2
  9
$DIMTXSTY
  7
Standard
  9
$DIMAUNIT
 70
     0
  9
$DIMADEC
 70
     2
  9
$DIMALTRND
 40
0.0
  9
$DIMAZIN
 70
     0
  9
$DIMDSEP
 70
    46
  9
$DIMATFIT
 70
     3
  9
$DIMFRAC
 70
     0
  9
$DIMLDRBLK
  1

  9
$DIMLUNIT
 70
     2
  9
$DIMLWD
 70
    -2
  9
$DIMLWE
 70
    -2
  9
$DIMTMOVE
 70
     0
  9
$LUNITS
 70
     2
  9
$LUPREC
 70
     2
  9
$SKETCHINC
 40
0.1
  9
$FILLETRAD
 40
0.5
  9
$AUNITS
 70
     0
  9
$AUPREC
 70
     2
  9
$MENU
  1
.
  9
$ELEVATION
 40
0.0
  9
$PELEVATION
 40
0.0
  9
$THICKNESS
 40
0.0
  9
$LIMCHECK
 70
     0
  9
$CHAMFERA
 40
0.0
  9
$CHAMFERB
 40
0.0
  9
$CHAMFERC
 40
0.0
  9
$CHAMFERD
 40
0.0
  9
$SKPOLY
 70
     0
  9
$TDCREATE
 40
2459618.931873333
  9
$TDUCREATE
 40
2459619.140206667
  9
$TDUPDATE
 40
2459618.931969294
  9
$TDUUPDATE
 40
2459619.140302627
  9
$TDINDWG
 40
0.0000000116
  9
$TDUSRTIMER
 40
0.0000000116
  9
$USRTIMER
 70
     1
  9
$ANGBASE
 50
0.0
  9
$ANGDIR
 70
     0
  9
$PDMODE
 70
     0
  9
$PDSIZE
 40
-1.0
  9
$PLINEWID
 40
0.0
  9
$SPLFRAME
 70
     0
  9
$SPLINETYPE
 70
     6
  9
$SPLINESEGS
 70
     8
  9
$HANDSEED
  5
26C
  9
$SURFTAB1
 70
     6
  9
$SURFTAB2
 70
     6
  9
$SURFTYPE
 70
     6
  9
$SURFU
 70
     6
  9
$SURFV
 70
     6
  9
$UCSBASE
  2

  9
$UCSNAME
  2

  9
$UCSORG
 10
0.0
 20
0.0
 30
0.0
  9
$UCSXDIR
 10
1.0
 20
0.0
 30
0.0
  9
$UCSYDIR
 10
0.0
 20
1.0
 30
0.0
  9
$UCSORTHOREF
  2

  9
$UCSORTHOVIEW
 70
     0
  9
$UCSORGTOP
 10
0.0
 20
0.0
 30
0.0
  9
$UCSORGBOTTOM
 10
0.0
 20
0.0
 30
0.0
  9
$UCSORGLEFT
 10
0.0
 20
0.0
 30
0.0
  9
$UCSORGRIGHT
 10
0.0
 20
0.0
 30
0.0
  9
$UCSORGFRONT
 10
0.0
 20
0.0
 30
0.0
  9
$UCSORGBACK
 10
0.0
 20
0.0
 30
0.0
  9
$PUCSBASE
  2

  9
$PUCSNAME
  2

  9
$PUCSORG
 10
0.0
 20
0.0
 30
0.0
  9
$PUCSXDIR
 10
1.0
 20
0.0
 30
0.0
  9
$PUCSYDIR
 10
0.0
 20
1.0
 30
0.0
  9
$PUCSORTHOREF
  2

  9
$PUCSORTHOVIEW
 70
     0
  9
$PUCSORGTOP
 10
0.0
 20
0.0
 30
0.0
  9
$PUCSORGBOTTOM
 10
0.0
 20
0.0
 30
0.0
  9
$PUCSORGLEFT
 10
0.0
 20
0.0
 30
0.0
  9
$PUCSORGRIGHT
 10
0.0
 20
0.0
 30
0.0
  9
$PUCSORGFRONT
 10
0.0
 20
0.0
 30
0.0
  9
$PUCSORGBACK
 10
0.0
 20
0.0
 30
0.0
  9
$USERI1
 70
     0
  9
$USERI2
 70
     0
  9
$USERI3
 70
     0
  9
$USERI4
 70
     0
  9
$USERI5
 70
     0
  9
$USERR1
 40
0.0
  9
$USERR2
 40
0.0
  9
$USERR3
 40
0.0
  9
$USERR4
 40
0.0
  9
$USERR5
 40
0.0
  9
$WORLDVIEW
 70
     1
  9
$SHADEDGE
 70
     3
  9
$SHADEDIF
 70
    70
  9
$TILEMODE
 70
     1
  9
$MAXACTVP
 70
    64
  9
$PINSBASE
 10
0.0
 20
0.0
 30
0.0
  9
$PLIMCHECK
 70
     0
  9
$PEXTMIN
 10
1.0000000000E+20
 20
1.0000000000E+20
 30
1.0000000000E+20
  9
$PEXTMAX
 10
-1.0000000000E+20
 20
-1.0000000000E+20
 30
-1.0000000000E+20
  9
$PLIMMIN
 10
0.0
 20
0.0
  9
$PLIMMAX
 10
12.0
 20
9.0
  9
$UNITMODE
 70
     0
  9
$VISRETAIN
 70
     1
  9
$PLINEGEN
 70
     0
  9
$PSLTSCALE
 70
     1
  9
$TREEDEPTH
 70
  3020
  9
$CMLSTYLE
  2
Standard
  9
$CMLJUST
 70
     0
  9
$CMLSCALE
 40
1.0
  9
$PROXYGRAPHICS
 70
     1
  9
$MEASUREMENT
 70
     0
  9
$CELWEIGHT
370
    -1
  9
$ENDCAPS
280
     0
  9
$JOINSTYLE
280
     0
  9
$LWDISPLAY
290
     1
  9
$INSUNITS
 70
     1
  9
$HYPERLINKBASE
  1

  9
$STYLESHEET
  1

  9
$XEDIT
290
     1
  9
$CEPSNTYPE
380
     0
  9
$PSTYLEMODE
290
     1
  9
$FINGERPRINTGUID
  2
{d09c979b-a76a-40d3-9f5a-79d743b0fad9}
  9
$VERSIONGUID
  2
{FAEB1C32-E019-11D5-929B-00C0DF256EC4}
  9
$EXTNAMES
290
     1
  9
$PSVPSCALE
 40
0.0
  9
$OLESTARTUP
290
     0
  0
ENDSEC
  0
SECTION
  2
CLASSES
  0
CLASS
  1
ACDBDICTIONARYWDFLT
  2
AcDbDictionaryWithDefault
  3
ObjectDBX Classes
 90
        0
280
     0
281
     0
  0
CLASS
  1
VISUALSTYLE
  2
AcDbVisualStyle
  3
ObjectDBX Classes
 90
     4095
280
     0
281
     0
  0
CLASS
  1
MATERIAL
  2
AcDbMaterial
  3
ObjectDBX Classes
 90
     1153
280
     0
281
     0
  0
CLASS
  1
SCALE
  2
AcDbScale
  3
ObjectDBX Classes
 90
     1153
280
     0
281
     0
  0
CLASS
  1
TABLESTYLE
  2
AcDbTableStyle
  3
ObjectDBX Classes
 90
     4095
280
     0
281
     0
  0
CLASS
  1
MLEADERSTYLE
  2
AcDbMLeaderStyle
  3
ACDB_MLEADERSTYLE_CLASS
 90
     4095
280
     0
281
     0
  0
CLASS
  1
SUN
  2
AcDbSun
  3
SCENEOE
 90
     1153
280
     0
281
     0
  0
CLASS
  1
ACDBPLACEHOLDER
  2
AcDbPlaceHolder
  3
ObjectDBX Classes
 90
        0
280
     0
281
     0
  0
CLASS
  1
LAYOUT
  2
AcDbLayout
  3
ObjectDBX Classes
 90
        0
280
     0
281
     0
  0
ENDSEC
  0
SECTION
  2
TABLES
  0
TABLE
  2
VPORT
  5
8
330
0
100
AcDbSymbolTable
 70
     1
  0
VPORT
  5
29
330
8
100
AcDbSymbolTableRecord
100
AcDbViewportTableRecord
  2
*Active
 70
     0
 10
0.0
 20
0.0
 11
1.0
 21
1.0
 12
3.906922909
 22
19.4033853105
 13
0.0
 23
0.0
 14
0.5
 24
0.5
 15
0.5
 25
0.5
 16
0.0
 26
0.0
 36
1.0
 17
0.0
 27
0.0
 37
0.0
 40
49.2007980642
 41
1.1024259309
 42
50.0
 43
0.0
 44
0.0
 50
0.0
 51
0.0
 71
     0
 72
   100
 73
     1
 74
     3
 75
     0
 76
     0
 77
     0
 78
     0
281
     0
 65
     1
110
0.0
120
0.0
130
0.0
111
1.0
121
0.0
131
0.0
112
0.0
122
1.0
132
0.0
 79
     0
146
0.0
  0
ENDTAB
  0
TABLE
  2
LTYPE
  5
5
330
0
100
AcDbSymbolTable
 70
     6
  0
LTYPE
  5
14
330
5
100
AcDbSymbolTableRecord
100
AcDbLinetypeTableRecord
  2
ByBlock
 70
     0
  3

 72
    65
 73
     0
 40
0.0
  0
LTYPE
  5
15
330
5
100
AcDbSymbolTableRecord
100
AcDbLinetypeTableRecord
  2
ByLayer
 70
     0
  3

 72
    65
 73
     0
 40
0.0
  0
LTYPE
  5
16
330
5
100
AcDbSymbolTableRecord
100
AcDbLinetypeTableRecord
  2
Continuous
 70
     0
  3
Solid line
 72
    65
 73
     0
 40
0.0
  0
LTYPE
  5
6E
330
5
100
AcDbSymbolTableRecord
100
AcDbLinetypeTableRecord
  2
HIDDEN
 70
     0
  3
Hidden __ __ __ __ __ __ __ __ __ __ __ __ __ __
 72
    65
 73
     2
 40
0.075
 49
0.05
 74
     0
 49
-0.025
 74
     0
  0
LTYPE
  5
6F
330
5
100
AcDbSymbolTableRecord
100
AcDbLinetypeTableRecord
  2
PHANTOM
 70
     0
  3
Phantom ______  __  __  ______  __  __  ______
 72
    65
 73
     6
 40
0.5
 49
0.25
 74
     0
 49
-0.05
 74
     0
 49
0.05
 74
     0
 49
-0.05
 74
     0
 49
0.05
 74
     0
 49
-0.05
 74
     0
  0
LTYPE
  5
70
330
5
100
AcDbSymbolTableRecord
100
AcDbLinetypeTableRecord
  2
CENTER
 70
     0
  3
Center ____ _ ____ _ ____ _ ____ _ ____ _ ____
 72
    65
 73
     4
 40
0.4
 49
0.25
 74
     0
 49
-0.05
 74
     0
 49
0.05
 74
     0
 49
-0.05
 74
     0
  0
LTYPE
  5
71
330
5
100
AcDbSymbolTableRecord
100
AcDbLinetypeTableRecord
  2
CENTERX2
 70
     0
  3
Center (2x) ________  __  ________  __  _____
 72
    65
 73
     4
 40
0.8
 49
0.5
 74
     0
 49
-0.1
 74
     0
 49
0.1
 74
     0
 49
-0.1
 74
     0
  0
LTYPE
  5
72
330
5
100
AcDbSymbolTableRecord
100
AcDbLinetypeTableRecord
  2
DOT2
 70
     0
  3
Dot (.5x) ........................................
 72
    65
 73
     2
 40
0.025
 49
0.0
 74
     0
 49
-0.025
 74
     0
  0
ENDTAB
  0
TABLE
  2
LAYER
  5
2
330
0
100
AcDbSymbolTable
 70
     1
  0
LAYER
  5
10
330
2
100
AcDbSymbolTableRecord
100
AcDbLayerTableRecord
  2
0
 70
     0
 62
     7
  6
Continuous
370
    -3
390
F
  0
ENDTAB
  0
TABLE
  2
STYLE
  5
3
330
0
100
AcDbSymbolTable
 70
     2
  0
STYLE
  5
11
330
3
100
AcDbSymbolTableRecord
100
AcDbTextStyleTableRecord
  2
Standard
 70
     0
 40
0.0
 41
1.0
 50
0.0
 71
     0
 42
0.125
  3
txt
  4

  0
STYLE
  5
268
330
3
100
AcDbSymbolTableRecord
100
AcDbTextStyleTableRecord
  2
SLDTEXTSTYLE0
 70
     0
 40
0.0
 41
0.7
 50
0.0
 71
     0
 42
0.125
  3
TXT
  4

  0
ENDTAB
  0
TABLE
  2
VIEW
  5
6
330
0
100
AcDbSymbolTable
 70
     0
  0
ENDTAB
  0
TABLE
  2
UCS
  5
7
330
0
100
AcDbSymbolTable
 70
     0
  0
ENDTAB
  0
TABLE
  2
APPID
  5
9
330
0
100
AcDbSymbolTable
 70
     1
  0
APPID
  5
12
330
9
100
AcDbSymbolTableRecord
100
AcDbRegAppTableRecord
  2
ACAD
 70
     0
  0
ENDTAB
  0
TABLE
  2
DIMSTYLE
  5
A
330
0
100
AcDbSymbolTable
 70
     1
100
AcDbDimStyleTable
  0
DIMSTYLE
105
27
330
A
100
AcDbSymbolTableRecord
100
AcDbDimStyleTableRecord
  2
Standard
 70
     0
178
     0
340
11
  0
ENDTAB
  0
TABLE
  2
BLOCK_RECORD
  5
1
330
0
100
AcDbSymbolTable
 70
     1
  0
BLOCK_RECORD
  5
1F
330
1
100
AcDbSymbolTableRecord
100
AcDbBlockTableRecord
  2
*Model_Space
340
22
  0
BLOCK_RECORD
  5
1B
330
1
100
AcDbSymbolTableRecord
100
AcDbBlockTableRecord
  2
*Paper_Space
340
1E
  0
BLOCK_RECORD
  5
23
330
1
100
AcDbSymbolTableRecord
100
AcDbBlockTableRecord
  2
*Paper_Space0
340
26
  0
ENDTAB
  0
ENDSEC
  0
SECTION
  2
BLOCKS
  0
BLOCK
  5
20
330
1F
100
AcDbEntity
  8
0
100
AcDbBlockBegin
  2
*Model_Space
 70
     0
 10
0.0
 20
0.0
 30
0.0
  3
*Model_Space
  1

  0
ENDBLK
  5
21
330
1F
100
AcDbEntity
  8
0
100
AcDbBlockEnd
  0
BLOCK
  5
1C
330
1B
100
AcDbEntity
 67
     1
  8
0
100
AcDbBlockBegin
  2
*Paper_Space
 70
     0
 10
0.0
 20
0.0
 30
0.0
  3
*Paper_Space
  1

  0
ENDBLK
  5
1D
330
1B
100
AcDbEntity
 67
     1
  8
0
100
AcDbBlockEnd
  0
BLOCK
  5
24
330
23
100
AcDbEntity
  8
0
100
AcDbBlockBegin
  2
*Paper_Space0
 70
     0
 10
0.0
 20
0.0
 30
0.0
  3
*Paper_Space0
  1

  0
ENDBLK
  5
25
330
23
100
AcDbEntity
  8
0
100
AcDbBlockEnd
  0
ENDSEC
  0
SECTION
  2
ENTITIES
  0
CIRCLE
  5
73
330
1F
100
AcDbEntity
  8
0
  6
Continuous
 62
     7
100
AcDbCircle
 10
3.3804380215
 20
-0.2146529563
 30
0.0
 40
0.0449999999999998
  0
CIRCLE
  5
74
330
1F
100
AcDbEntity
  8
0
  6
Continuous
 62
     7
100
AcDbCircle
 10
3.3804380215
 20
-3.2146529563
 30
0.0
 40
0.0450000000000003
  0
CIRCLE
  5
75
330
1F
100
AcDbEntity
  8
0
  6
Continuous
 62
     7
100
AcDbCircle
 10
1.9429380215
 20
1.2228470437
 30
0.0
 40
0.045
  0
CIRCLE
  5
76
330
1F
100
AcDbEntity
  8
0
  6
Continuous
 62
     7
100
AcDbCircle
 10
-1.0570619785
 20
1.2228470437
 30
0.0
 40
0.0449999999999998
  0
CIRCLE
  5
77
330
1F
100
AcDbEntity
  8
0
  6
Continuous
 62
     7
100
AcDbCircle
 10
-4.0570619785
 20
1.2228470437
 30
0.0
 40
0.0449999999999998
  0
CIRCLE
  5
78
330
1F
100
AcDbEntity
  8
0
  6
Continuous
 62
     7
100
AcDbCircle
 10
-5.4945619785
 20
-3.2146529563
 30
0.0
 40
0.0450000000000007
  0
CIRCLE
  5
79
330
1F
100
AcDbEntity
  8
0
  6
Continuous
 62
     7
100
AcDbCircle
 10
-5.4945619785
 20
-0.2146529563
 30
0.0
 40
0.0450000000000006
  0
CIRCLE
  5
7A
330
1F
100
AcDbEntity
  8
0
  6
Continuous
 62
     7
100
AcDbCircle
 10
14.9878776886
 20
6.4643133284
 30
0.0
 40
0.0450000000000007
  0
CIRCLE
  5
7B
330
1F
100
AcDbEntity
  8
0
  6
Continuous
 62
     7
100
AcDbCircle
 10
14.9878776886
 20
3.5943133284
 30
0.0
 40
0.0450000000000007
  0
CIRCLE
  5
7C
330
1F
100
AcDbEntity
  8
0
  6
Continuous
 62
     7
100
AcDbCircle
 10
9.2203776886
 20
7.7943133284
 30
0.0
 40
0.0999999999999882
  0
CIRCLE
  5
7D
330
1F
100
AcDbEntity
  8
0
  6
Continuous
 62
     7
100
AcDbCircle
 10
9.2203776886
 20
4.7943133284
 30
0.0
 40
0.1
  0
CIRCLE
  5
7E
330
1F
100
AcDbEntity
  8
0
  6
Continuous
 62
     7
100
AcDbCircle
 10
-7.4476391051
 20
11.0807327951
 30
0.0
 40
0.0450000000000007
  0
CIRCLE
  5
7F
330
1F
100
AcDbEntity
  8
0
  6
Continuous
 62
     7
100
AcDbCircle
 10
-7.4476391051
 20
8.2107327951
 30
0.0
 40
0.0450000000000007
  0
CIRCLE
  5
80
330
1F
100
AcDbEntity
  8
0
  6
Continuous
 62
     7
100
AcDbCircle
 10
-13.2151391051
 20
12.4107327951
 30
0.0
 40
0.0999999999999986
  0
CIRCLE
  5
81
330
1F
100
AcDbEntity
  8
0
  6
Continuous
 62
     7
100
AcDbCircle
 10
-13.2151391051
 20
9.4107327951
 30
0.0
 40
0.1000000000000003
  0
CIRCLE
  5
82
330
1F
100
AcDbEntity
  8
0
  6
Continuous
 62
     7
100
AcDbCircle
 10
-13.7439278798
 20
1.8844717182
 30
0.0
 40
0.0450000000000006
  0
CIRCLE
  5
83
330
1F
100
AcDbEntity
  8
0
  6
Continuous
 62
     7
100
AcDbCircle
 10
-13.7439278798
 20
-1.1155282818
 30
0.0
 40
0.0450000000000007
  0
CIRCLE
  5
84
330
1F
100
AcDbEntity
  8
0
  6
Continuous
 62
     7
100
AcDbCircle
 10
-15.1814278798
 20
3.3219717182
 30
0.0
 40
0.0450000000000004
  0
CIRCLE
  5
85
330
1F
100
AcDbEntity
  8
0
  6
Continuous
 62
     7
100
AcDbCircle
 10
-18.1814278798
 20
3.3219717182
 30
0.0
 40
0.0450000000000021
  0
CIRCLE
  5
86
330
1F
100
AcDbEntity
  8
0
  6
Continuous
 62
     7
100
AcDbCircle
 10
-21.1814278798
 20
3.3219717182
 30
0.0
 40
0.0450000000000021
  0
CIRCLE
  5
87
330
1F
100
AcDbEntity
  8
0
  6
Continuous
 62
     7
100
AcDbCircle
 10
-22.6189278798
 20
-1.1155282818
 30
0.0
 40
0.0449999999999956
  0
CIRCLE
  5
88
330
1F
100
AcDbEntity
  8
0
  6
Continuous
 62
     7
100
AcDbCircle
 10
-22.6189278798
 20
1.8844717182
 30
0.0
 40
0.0449999999999955
  0
LINE
  5
89
330
1F
100
AcDbEntity
  8
0
  6
Continuous
 62
     7
100
AcDbLine
 10
-5.5570619785
 20
-2.2146529563
 30
0.0
 11
-5.4270619785
 21
-2.2146529563
 31
0.0
  0
LINE
  5
8A
330
1F
100
AcDbEntity
  8
0
  6
Continuous
 62
     7
100
AcDbLine
 10
-5.5570619785
 20
1.2853470437
 30
0.0
 11
-3.2270619785
 21
1.2853470437
 31
0.0
  0
LINE
  5
8B
330
1F
100
AcDbEntity
  8
0
  6
Continuous
 62
     7
100
AcDbLine
 10
-5.5570619785
 20
1.2853470437
 30
0.0
 11
-5.5570619785
 21
-1.2146529563
 31
0.0
  0
LINE
  5
8C
330
1F
100
AcDbEntity
  8
0
  6
Continuous
 62
     7
100
AcDbLine
 10
-5.5570619785
 20
-4.7146529563
 30
0.0
 11
3.4429380215
 21
-4.7146529563
 31
0.0
  0
LINE
  5
8D
330
1F
100
AcDbEntity
  8
0
  6
Continuous
 62
     7
100
AcDbLine
 10
3.4429380215
 20
1.2853470437
 30
0.0
 11
3.4429380215
 21
-1.2146529563
 31
0.0
  0
LINE
  5
8E
330
1F
100
AcDbEntity
  8
0
  6
Continuous
 62
     7
100
AcDbLine
 10
-5.4270619785
 20
-2.2146529563
 30
0.0
 11
-5.4270619785
 21
-1.2146529563
 31
0.0
  0
LINE
  5
8F
330
1F
100
AcDbEntity
  8
0
  6
Continuous
 62
     7
100
AcDbLine
 10
-5.4270619785
 20
-1.2146529563
 30
0.0
 11
-5.5570619785
 21
-1.2146529563
 31
0.0
  0
LINE
  5
90
330
1F
100
AcDbEntity
  8
0
  6
Continuous
 62
     7
100
AcDbLine
 10
-3.2270619785
 20
1.2853470437
 30
0.0
 11
-3.2270619785
 21
1.1553470437
 31
0.0
  0
LINE
  5
91
330
1F
100
AcDbEntity
  8
0
  6
Continuous
 62
     7
100
AcDbLine
 10
-3.2270619785
 20
1.1553470437
 30
0.0
 11
-2.2270619785
 21
1.1553470437
 31
0.0
  0
LINE
  5
92
330
1F
100
AcDbEntity
  8
0
  6
Continuous
 62
     7
100
AcDbLine
 10
-2.2270619785
 20
1.1553470437
 30
0.0
 11
-2.2270619785
 21
1.2853470437
 31
0.0
  0
LINE
  5
93
330
1F
100
AcDbEntity
  8
0
  6
Continuous
 62
     7
100
AcDbLine
 10
0.1129380215
 20
1.2853470437
 30
0.0
 11
0.1129380215
 21
1.1553470437
 31
0.0
  0
LINE
  5
94
330
1F
100
AcDbEntity
  8
0
  6
Continuous
 62
     7
100
AcDbLine
 10
0.1129380215
 20
1.1553470437
 30
0.0
 11
1.1129380215
 21
1.1553470437
 31
0.0
  0
LINE
  5
95
330
1F
100
AcDbEntity
  8
0
  6
Continuous
 62
     7
100
AcDbLine
 10
1.1129380215
 20
1.1553470437
 30
0.0
 11
1.1129380215
 21
1.2853470437
 31
0.0
  0
LINE
  5
96
330
1F
100
AcDbEntity
  8
0
  6
Continuous
 62
     7
100
AcDbLine
 10
-0.9279561136
 20
1.2853470437
 30
0.0
 11
-1.9279561136
 21
1.2853470437
 31
0.0
  0
LINE
  5
97
330
1F
100
AcDbEntity
  8
0
  6
Continuous
 62
     7
100
AcDbLine
 10
11.5503776886
 20
7.9643133284
 30
0.0
 11
11.5503776886
 21
8.0943133284
 31
0.0
  0
LINE
  5
98
330
1F
100
AcDbEntity
  8
0
  6
Continuous
 62
     7
100
AcDbLine
 10
9.0503776886
 20
7.9643133284
 30
0.0
 11
10.5003776886
 21
7.9643133284
 31
0.0
  0
LINE
  5
99
330
1F
100
AcDbEntity
  8
0
  6
Continuous
 62
     7
100
AcDbLine
 10
-2.2270619785
 20
1.2853470437
 30
0.0
 11
-1.9279561136
 21
1.2853470437
 31
0.0
  0
LINE
  5
9A
330
1F
100
AcDbEntity
  8
0
  6
Continuous
 62
     7
100
AcDbLine
 10
3.4429380215
 20
-1.2146529563
 30
0.0
 11
3.3129380215
 21
-1.2146529563
 31
0.0
  0
LINE
  5
9B
330
1F
100
AcDbEntity
  8
0
  6
Continuous
 62
     7
100
AcDbLine
 10
3.3129380215
 20
-1.2146529563
 30
0.0
 11
3.3129380215
 21
-2.2146529563
 31
0.0
  0
LINE
  5
9C
330
1F
100
AcDbEntity
  8
0
  6
Continuous
 62
     7
100
AcDbLine
 10
3.3129380215
 20
-2.2146529563
 30
0.0
 11
3.4429380215
 21
-2.2146529563
 31
0.0
  0
LINE
  5
9D
330
1F
100
AcDbEntity
  8
0
  6
Continuous
 62
     7
100
AcDbLine
 10
-0.9279561136
 20
1.2853470437
 30
0.0
 11
0.1129380215
 21
1.2853470437
 31
0.0
  0
LINE
  5
9E
330
1F
100
AcDbEntity
  8
0
  6
Continuous
 62
     7
100
AcDbLine
 10
1.1129380215
 20
1.2853470437
 30
0.0
 11
3.4429380215
 21
1.2853470437
 31
0.0
  0
LINE
  5
9F
330
1F
100
AcDbEntity
  8
0
  6
Continuous
 62
     7
100
AcDbLine
 10
3.4429380215
 20
-2.2146529563
 30
0.0
 11
3.4429380215
 21
-4.7146529563
 31
0.0
  0
LINE
  5
A0
330
1F
100
AcDbEntity
  8
0
  6
Continuous
 62
     7
100
AcDbLine
 10
-5.5570619785
 20
-2.2146529563
 30
0.0
 11
-5.5570619785
 21
-4.7146529563
 31
0.0
  0
LINE
  5
A1
330
1F
100
AcDbEntity
  8
0
  6
Continuous
 62
     7
100
AcDbLine
 10
11.5503776886
 20
2.0943133284
 30
0.0
 11
12.5503776886
 21
2.0943133284
 31
0.0
  0
LINE
  5
A2
330
1F
100
AcDbEntity
  8
0
  6
Continuous
 62
     7
100
AcDbLine
 10
15.0503776886
 20
7.9643133284
 30
0.0
 11
15.0503776886
 21
5.5616784042
 31
0.0
  0
LINE
  5
A3
330
1F
100
AcDbEntity
  8
0
  6
Continuous
 62
     7
100
AcDbLine
 10
11.5503776886
 20
8.0943133284
 30
0.0
 11
12.5503776886
 21
8.0943133284
 31
0.0
  0
LINE
  5
A4
330
1F
100
AcDbEntity
  8
0
  6
Continuous
 62
     7
100
AcDbLine
 10
12.5503776886
 20
8.0943133284
 30
0.0
 11
12.5503776886
 21
7.9643133284
 31
0.0
  0
LINE
  5
A5
330
1F
100
AcDbEntity
  8
0
  6
Continuous
 62
     7
100
AcDbLine
 10
12.5503776886
 20
7.9643133284
 30
0.0
 11
13.5103776886
 21
7.9643133284
 31
0.0
  0
LINE
  5
A6
330
1F
100
AcDbEntity
  8
0
  6
Continuous
 62
     7
100
AcDbLine
 10
13.5103776886
 20
7.9643133284
 30
0.0
 11
13.5103776886
 21
7.8323133284
 31
0.0
  0
LINE
  5
A7
330
1F
100
AcDbEntity
  8
0
  6
Continuous
 62
     7
100
AcDbLine
 10
13.5103776886
 20
7.8323133284
 30
0.0
 11
13.4603776886
 21
7.8323133284
 31
0.0
  0
LINE
  5
A8
330
1F
100
AcDbEntity
  8
0
  6
Continuous
 62
     7
100
AcDbLine
 10
13.4603776886
 20
7.8323133284
 30
0.0
 11
13.4603776886
 21
7.7693133284
 31
0.0
  0
LINE
  5
A9
330
1F
100
AcDbEntity
  8
0
  6
Continuous
 62
     7
100
AcDbLine
 10
13.4603776886
 20
7.7693133284
 30
0.0
 11
13.5103776886
 21
7.7693133284
 31
0.0
  0
LINE
  5
AA
330
1F
100
AcDbEntity
  8
0
  6
Continuous
 62
     7
100
AcDbLine
 10
13.5103776886
 20
7.7693133284
 30
0.0
 11
13.5103776886
 21
7.7123133284
 31
0.0
  0
LINE
  5
AB
330
1F
100
AcDbEntity
  8
0
  6
Continuous
 62
     7
100
AcDbLine
 10
13.5103776886
 20
7.7123133284
 30
0.0
 11
13.6003776886
 21
7.7123133284
 31
0.0
  0
LINE
  5
AC
330
1F
100
AcDbEntity
  8
0
  6
Continuous
 62
     7
100
AcDbLine
 10
13.6003776886
 20
7.7123133284
 30
0.0
 11
13.6003776886
 21
7.7693133284
 31
0.0
  0
LINE
  5
AD
330
1F
100
AcDbEntity
  8
0
  6
Continuous
 62
     7
100
AcDbLine
 10
13.6003776886
 20
7.7693133284
 30
0.0
 11
13.6503776886
 21
7.7693133284
 31
0.0
  0
LINE
  5
AE
330
1F
100
AcDbEntity
  8
0
  6
Continuous
 62
     7
100
AcDbLine
 10
13.6503776886
 20
7.7693133284
 30
0.0
 11
13.6503776886
 21
7.8323133284
 31
0.0
  0
LINE
  5
AF
330
1F
100
AcDbEntity
  8
0
  6
Continuous
 62
     7
100
AcDbLine
 10
13.6503776886
 20
7.8323133284
 30
0.0
 11
13.6003776886
 21
7.8323133284
 31
0.0
  0
LINE
  5
B0
330
1F
100
AcDbEntity
  8
0
  6
Continuous
 62
     7
100
AcDbLine
 10
13.6003776886
 20
7.8323133284
 30
0.0
 11
13.6003776886
 21
7.9643133284
 31
0.0
  0
LINE
  5
B1
330
1F
100
AcDbEntity
  8
0
  6
Continuous
 62
     7
100
AcDbLine
 10
11.5503776886
 20
2.2243133284
 30
0.0
 11
11.5503776886
 21
2.0943133284
 31
0.0
  0
LINE
  5
B2
330
1F
100
AcDbEntity
  8
0
  6
Continuous
 62
     7
100
AcDbLine
 10
13.6003776886
 20
7.9643133284
 30
0.0
 11
15.0503776886
 21
7.9643133284
 31
0.0
  0
LINE
  5
B3
330
1F
100
AcDbEntity
  8
0
  6
Continuous
 62
     7
100
AcDbLine
 10
10.0503776886
 20
5.1593133284
 30
0.0
 11
10.0503776886
 21
5.0293133284
 31
0.0
  0
LINE
  5
B4
330
1F
100
AcDbEntity
  8
0
  6
Continuous
 62
     7
100
AcDbLine
 10
10.4946590142
 20
7.8307654903
 30
0.0
 11
10.494527441
 21
7.9627654248
 31
0.0
  0
LINE
  5
B5
330
1F
100
AcDbEntity
  8
0
  6
Continuous
 62
     7
100
AcDbLine
 10
10.444659039
 20
7.830715652
 30
0.0
 11
10.4946590142
 21
7.8307654903
 31
0.0
  0
LINE
  5
B6
330
1F
100
AcDbEntity
  8
0
  6
Continuous
 62
     7
100
AcDbLine
 10
10.4447218353
 20
7.7677156833
 30
0.0
 11
10.444659039
 21
7.830715652
 31
0.0
  0
LINE
  5
B7
330
1F
100
AcDbEntity
  8
0
  6
Continuous
 62
     7
100
AcDbLine
 10
10.4947218105
 20
7.7677655216
 30
0.0
 11
10.4447218353
 21
7.7677156833
 31
0.0
  0
LINE
  5
B8
330
1F
100
AcDbEntity
  8
0
  6
Continuous
 62
     7
100
AcDbLine
 10
10.4947786261
 20
7.7107655499
 30
0.0
 11
10.4947218105
 21
7.7677655216
 31
0.0
  0
LINE
  5
B9
330
1F
100
AcDbEntity
  8
0
  6
Continuous
 62
     7
100
AcDbLine
 10
10.5847785814
 20
7.7108552589
 30
0.0
 11
10.4947786261
 21
7.7107655499
 31
0.0
  0
LINE
  5
BA
330
1F
100
AcDbEntity
  8
0
  6
Continuous
 62
     7
100
AcDbLine
 10
10.5847217657
 20
7.7678552306
 30
0.0
 11
10.5847785814
 21
7.7108552589
 31
0.0
  0
LINE
  5
BB
330
1F
100
AcDbEntity
  8
0
  6
Continuous
 62
     7
100
AcDbLine
 10
10.6347217409
 20
7.7679050689
 30
0.0
 11
10.5847217657
 21
7.7678552306
 31
0.0
  0
LINE
  5
BC
330
1F
100
AcDbEntity
  8
0
  6
Continuous
 62
     7
100
AcDbLine
 10
10.6346589446
 20
7.8309050376
 30
0.0
 11
10.6347217409
 21
7.7679050689
 31
0.0
  0
LINE
  5
BD
330
1F
100
AcDbEntity
  8
0
  6
Continuous
 62
     7
100
AcDbLine
 10
10.5846589695
 20
7.8308551993
 30
0.0
 11
10.6346589446
 21
7.8309050376
 31
0.0
  0
LINE
  5
BE
330
1F
100
AcDbEntity
  8
0
  6
Continuous
 62
     7
100
AcDbLine
 10
10.5903776886
 20
7.9643133284
 30
0.0
 11
11.5503776886
 21
7.9643133284
 31
0.0
  0
LINE
  5
BF
330
1F
100
AcDbEntity
  8
0
  6
Continuous
 62
     7
100
AcDbLine
 10
10.5845273963
 20
7.9628551337
 30
0.0
 11
10.5846589695
 21
7.8308551993
 31
0.0
  0
LINE
  5
C0
330
1F
100
AcDbEntity
  8
0
  6
Continuous
 62
     7
100
AcDbLine
 10
11.5503776886
 20
2.0943133284
 30
0.0
 11
12.5503776886
 21
2.0943133284
 31
0.0
  0
LINE
  5
C1
330
1F
100
AcDbEntity
  8
0
  6
Continuous
 62
     7
100
AcDbLine
 10
12.5503776886
 20
2.0943133284
 30
0.0
 11
12.5503776886
 21
2.2243133284
 31
0.0
  0
LINE
  5
C2
330
1F
100
AcDbEntity
  8
0
  6
Continuous
 62
     7
100
AcDbLine
 10
12.4586288073
 20
5.1593133284
 30
0.0
 11
12.4586288073
 21
5.0293133284
 31
0.0
  0
LINE
  5
C3
330
1F
100
AcDbEntity
  8
0
  6
Continuous
 62
     7
100
AcDbLine
 10
9.0503776886
 20
2.2243133284
 30
0.0
 11
9.0503776886
 21
7.9643133284
 31
0.0
  0
LINE
  5
C4
330
1F
100
AcDbEntity
  8
0
  6
Continuous
 62
     7
100
AcDbLine
 10
15.0503776886
 20
4.5616784042
 30
0.0
 11
15.0503776886
 21
2.2243133284
 31
0.0
  0
LINE
  5
C5
330
1F
100
AcDbEntity
  8
0
  6
Continuous
 62
     7
100
AcDbLine
 10
12.5503776886
 20
2.2243133284
 30
0.0
 11
13.5103776886
 21
2.2243133284
 31
0.0
  0
LINE
  5
C6
330
1F
100
AcDbEntity
  8
0
  6
Continuous
 62
     7
100
AcDbLine
 10
10.5845259429
 20
2.2243133284
 30
0.0
 11
11.5503776886
 21
2.2243133284
 31
0.0
  0
LINE
  5
C7
330
1F
100
AcDbEntity
  8
0
  6
Continuous
 62
     7
100
AcDbLine
 10
10.5845273963
 20
2.2257715231
 30
0.0
 11
10.5846589695
 21
2.3577714575
 31
0.0
  0
LINE
  5
C8
330
1F
100
AcDbEntity
  8
0
  6
Continuous
 62
     7
100
AcDbLine
 10
10.5846589695
 20
2.3577714575
 30
0.0
 11
10.6346589446
 21
2.3577216192
 31
0.0
  0
LINE
  5
C9
330
1F
100
AcDbEntity
  8
0
  6
Continuous
 62
     7
100
AcDbLine
 10
10.6346589446
 20
2.3577216192
 30
0.0
 11
10.6347217409
 21
2.4207215879
 31
0.0
  0
LINE
  5
CA
330
1F
100
AcDbEntity
  8
0
  6
Continuous
 62
     7
100
AcDbLine
 10
10.6347217409
 20
2.4207215879
 30
0.0
 11
10.5847217657
 21
2.4207714262
 31
0.0
  0
LINE
  5
CB
330
1F
100
AcDbEntity
  8
0
  6
Continuous
 62
     7
100
AcDbLine
 10
10.5847217657
 20
2.4207714262
 30
0.0
 11
10.5847785814
 21
2.4777713979
 31
0.0
  0
LINE
  5
CC
330
1F
100
AcDbEntity
  8
0
  6
Continuous
 62
     7
100
AcDbLine
 10
10.5847785814
 20
2.4777713979
 30
0.0
 11
10.4947786261
 21
2.4778611069
 31
0.0
  0
LINE
  5
CD
330
1F
100
AcDbEntity
  8
0
  6
Continuous
 62
     7
100
AcDbLine
 10
10.4947786261
 20
2.4778611069
 30
0.0
 11
10.4947218105
 21
2.4208611352
 31
0.0
  0
LINE
  5
CE
330
1F
100
AcDbEntity
  8
0
  6
Continuous
 62
     7
100
AcDbLine
 10
10.4947218105
 20
2.4208611352
 30
0.0
 11
10.4447218353
 21
2.4209109735
 31
0.0
  0
LINE
  5
CF
330
1F
100
AcDbEntity
  8
0
  6
Continuous
 62
     7
100
AcDbLine
 10
10.4447218353
 20
2.4209109735
 30
0.0
 11
10.444659039
 21
2.3579110048
 31
0.0
  0
LINE
  5
D0
330
1F
100
AcDbEntity
  8
0
  6
Continuous
 62
     7
100
AcDbLine
 10
10.444659039
 20
2.3579110048
 30
0.0
 11
10.4946590142
 21
2.3578611665
 31
0.0
  0
LINE
  5
D1
330
1F
100
AcDbEntity
  8
0
  6
Continuous
 62
     7
100
AcDbLine
 10
10.4946590142
 20
2.3578611665
 30
0.0
 11
10.494527441
 21
2.225861232
 31
0.0
  0
LINE
  5
D2
330
1F
100
AcDbEntity
  8
0
  6
Continuous
 62
     7
100
AcDbLine
 10
13.6003776886
 20
2.3563133284
 30
0.0
 11
13.6003776886
 21
2.2243133284
 31
0.0
  0
LINE
  5
D3
330
1F
100
AcDbEntity
  8
0
  6
Continuous
 62
     7
100
AcDbLine
 10
13.6503776886
 20
2.3563133284
 30
0.0
 11
13.6003776886
 21
2.3563133284
 31
0.0
  0
LINE
  5
D4
330
1F
100
AcDbEntity
  8
0
  6
Continuous
 62
     7
100
AcDbLine
 10
13.6503776886
 20
2.4193133284
 30
0.0
 11
13.6503776886
 21
2.3563133284
 31
0.0
  0
LINE
  5
D5
330
1F
100
AcDbEntity
  8
0
  6
Continuous
 62
     7
100
AcDbLine
 10
10.0503776886
 20
5.0293133284
 30
0.0
 11
11.0503776886
 21
5.0293133284
 31
0.0
  0
LINE
  5
D6
330
1F
100
AcDbEntity
  8
0
  6
Continuous
 62
     7
100
AcDbLine
 10
11.0503776886
 20
5.0293133284
 30
0.0
 11
11.0503776886
 21
5.1593133284
 31
0.0
  0
LINE
  5
D7
330
1F
100
AcDbEntity
  8
0
  6
Continuous
 62
     7
100
AcDbLine
 10
11.0503776886
 20
5.1593133284
 30
0.0
 11
10.0503776886
 21
5.1593133284
 31
0.0
  0
LINE
  5
D8
330
1F
100
AcDbEntity
  8
0
  6
Continuous
 62
     7
100
AcDbLine
 10
15.0503776886
 20
5.5616784042
 30
0.0
 11
14.9203776886
 21
5.5616784042
 31
0.0
  0
LINE
  5
D9
330
1F
100
AcDbEntity
  8
0
  6
Continuous
 62
     7
100
AcDbLine
 10
14.9203776886
 20
5.5616784042
 30
0.0
 11
14.9203776886
 21
4.5616784042
 31
0.0
  0
LINE
  5
DA
330
1F
100
AcDbEntity
  8
0
  6
Continuous
 62
     7
100
AcDbLine
 10
14.9203776886
 20
4.5616784042
 30
0.0
 11
15.0503776886
 21
4.5616784042
 31
0.0
  0
LINE
  5
DB
330
1F
100
AcDbEntity
  8
0
  6
Continuous
 62
     7
100
AcDbLine
 10
13.6003776886
 20
2.4193133284
 30
0.0
 11
13.6503776886
 21
2.4193133284
 31
0.0
  0
LINE
  5
DC
330
1F
100
AcDbEntity
  8
0
  6
Continuous
 62
     7
100
AcDbLine
 10
9.0503776886
 20
2.2243133284
 30
0.0
 11
10.4945258981
 21
2.2243133284
 31
0.0
  0
LINE
  5
DD
330
1F
100
AcDbEntity
  8
0
  6
Continuous
 62
     7
100
AcDbLine
 10
13.6003776886
 20
2.4763133284
 30
0.0
 11
13.6003776886
 21
2.4193133284
 31
0.0
  0
LINE
  5
DE
330
1F
100
AcDbEntity
  8
0
  6
Continuous
 62
     7
100
AcDbLine
 10
13.5103776886
 20
2.4763133284
 30
0.0
 11
13.6003776886
 21
2.4763133284
 31
0.0
  0
LINE
  5
DF
330
1F
100
AcDbEntity
  8
0
  6
Continuous
 62
     7
100
AcDbLine
 10
13.5103776886
 20
2.4193133284
 30
0.0
 11
13.5103776886
 21
2.4763133284
 31
0.0
  0
LINE
  5
E0
330
1F
100
AcDbEntity
  8
0
  6
Continuous
 62
     7
100
AcDbLine
 10
13.4603776886
 20
2.4193133284
 30
0.0
 11
13.5103776886
 21
2.4193133284
 31
0.0
  0
LINE
  5
E1
330
1F
100
AcDbEntity
  8
0
  6
Continuous
 62
     7
100
AcDbLine
 10
13.4603776886
 20
2.3563133284
 30
0.0
 11
13.4603776886
 21
2.4193133284
 31
0.0
  0
LINE
  5
E2
330
1F
100
AcDbEntity
  8
0
  6
Continuous
 62
     7
100
AcDbLine
 10
13.5103776886
 20
2.3563133284
 30
0.0
 11
13.4603776886
 21
2.3563133284
 31
0.0
  0
LINE
  5
E3
330
1F
100
AcDbEntity
  8
0
  6
Continuous
 62
     7
100
AcDbLine
 10
13.5103776886
 20
2.2243133284
 30
0.0
 11
13.5103776886
 21
2.3563133284
 31
0.0
  0
LINE
  5
E4
330
1F
100
AcDbEntity
  8
0
  6
Continuous
 62
     7
100
AcDbLine
 10
12.4586288073
 20
5.0293133284
 30
0.0
 11
13.4203776886
 21
5.0293133284
 31
0.0
  0
LINE
  5
E5
330
1F
100
AcDbEntity
  8
0
  6
Continuous
 62
     7
100
AcDbLine
 10
13.4203776886
 20
5.0293133284
 30
0.0
 11
13.4203776886
 21
5.1593133284
 31
0.0
  0
LINE
  5
E6
330
1F
100
AcDbEntity
  8
0
  6
Continuous
 62
     7
100
AcDbLine
 10
13.4203776886
 20
5.1593133284
 30
0.0
 11
12.4586288073
 21
5.1593133284
 31
0.0
  0
LINE
  5
E7
330
1F
100
AcDbEntity
  8
0
  6
Continuous
 62
     7
100
AcDbLine
 10
13.6003776886
 20
2.2243133284
 30
0.0
 11
15.0503776886
 21
2.2243133284
 31
0.0
  0
LINE
  5
E8
330
1F
100
AcDbEntity
  8
0
  6
Continuous
 62
     7
100
AcDbLine
 10
-10.8851391051
 20
12.5807327951
 30
0.0
 11
-10.8851391051
 21
12.7107327951
 31
0.0
  0
LINE
  5
E9
330
1F
100
AcDbEntity
  8
0
  6
Continuous
 62
     7
100
AcDbLine
 10
0.5479380215
 20
-2.3846529563
 30
0.0
 11
0.6779380215
 21
-2.3846529563
 31
0.0
  0
LINE
  5
EA
330
1F
100
AcDbEntity
  8
0
  6
Continuous
 62
     7
100
AcDbLine
 10
0.6779380215
 20
-2.3846529563
 30
0.0
 11
0.6779380215
 21
-3.3846529563
 31
0.0
  0
LINE
  5
EB
330
1F
100
AcDbEntity
  8
0
  6
Continuous
 62
     7
100
AcDbLine
 10
0.6779380215
 20
-3.3846529563
 30
0.0
 11
0.5479380215
 21
-3.3846529563
 31
0.0
  0
LINE
  5
EC
330
1F
100
AcDbEntity
  8
0
  6
Continuous
 62
     7
100
AcDbLine
 10
0.5479380215
 20
-3.3846529563
 30
0.0
 11
0.5479380215
 21
-2.3846529563
 31
0.0
  0
LINE
  5
ED
330
1F
100
AcDbEntity
  8
0
  6
Continuous
 62
     7
100
AcDbLine
 10
0.5479380215
 20
-1.0446529563
 30
0.0
 11
0.6779380215
 21
-1.0446529563
 31
0.0
  0
LINE
  5
EE
330
1F
100
AcDbEntity
  8
0
  6
Continuous
 62
     7
100
AcDbLine
 10
0.6779380215
 20
-1.0446529563
 30
0.0
 11
0.6779380215
 21
-0.0446529563
 31
0.0
  0
LINE
  5
EF
330
1F
100
AcDbEntity
  8
0
  6
Continuous
 62
     7
100
AcDbLine
 10
0.6779380215
 20
-0.0446529563
 30
0.0
 11
0.5479380215
 21
-0.0446529563
 31
0.0
  0
LINE
  5
F0
330
1F
100
AcDbEntity
  8
0
  6
Continuous
 62
     7
100
AcDbLine
 10
0.5479380215
 20
-0.0446529563
 30
0.0
 11
0.5479380215
 21
-1.0446529563
 31
0.0
  0
LINE
  5
F1
330
1F
100
AcDbEntity
  8
0
  6
Continuous
 62
     7
100
AcDbLine
 10
-13.3851391051
 20
12.5807327951
 30
0.0
 11
-11.9351391051
 21
12.5807327951
 31
0.0
  0
LINE
  5
F2
330
1F
100
AcDbEntity
  8
0
  6
Continuous
 62
     7
100
AcDbLine
 10
-10.8851391051
 20
6.7107327951
 30
0.0
 11
-9.8851391051
 21
6.7107327951
 31
0.0
  0
LINE
  5
F3
330
1F
100
AcDbEntity
  8
0
  6
Continuous
 62
     7
100
AcDbLine
 10
-7.3851391051
 20
12.5807327951
 30
0.0
 11
-7.3851391051
 21
10.1780978709
 31
0.0
  0
LINE
  5
F4
330
1F
100
AcDbEntity
  8
0
  6
Continuous
 62
     7
100
AcDbLine
 10
-10.8851391051
 20
12.7107327951
 30
0.0
 11
-9.8851391051
 21
12.7107327951
 31
0.0
  0
LINE
  5
F5
330
1F
100
AcDbEntity
  8
0
  6
Continuous
 62
     7
100
AcDbLine
 10
-9.8851391051
 20
12.7107327951
 30
0.0
 11
-9.8851391051
 21
12.5807327951
 31
0.0
  0
LINE
  5
F6
330
1F
100
AcDbEntity
  8
0
  6
Continuous
 62
     7
100
AcDbLine
 10
-9.8851391051
 20
12.5807327951
 30
0.0
 11
-8.9251391051
 21
12.5807327951
 31
0.0
  0
LINE
  5
F7
330
1F
100
AcDbEntity
  8
0
  6
Continuous
 62
     7
100
AcDbLine
 10
-8.9251391051
 20
12.5807327951
 30
0.0
 11
-8.9251391051
 21
12.4487327951
 31
0.0
  0
LINE
  5
F8
330
1F
100
AcDbEntity
  8
0
  6
Continuous
 62
     7
100
AcDbLine
 10
-8.9251391051
 20
12.4487327951
 30
0.0
 11
-8.9751391051
 21
12.4487327951
 31
0.0
  0
LINE
  5
F9
330
1F
100
AcDbEntity
  8
0
  6
Continuous
 62
     7
100
AcDbLine
 10
-8.9751391051
 20
12.4487327951
 30
0.0
 11
-8.9751391051
 21
12.3857327951
 31
0.0
  0
LINE
  5
FA
330
1F
100
AcDbEntity
  8
0
  6
Continuous
 62
     7
100
AcDbLine
 10
-8.9751391051
 20
12.3857327951
 30
0.0
 11
-8.9251391051
 21
12.3857327951
 31
0.0
  0
LINE
  5
FB
330
1F
100
AcDbEntity
  8
0
  6
Continuous
 62
     7
100
AcDbLine
 10
-8.9251391051
 20
12.3857327951
 30
0.0
 11
-8.9251391051
 21
12.3287327951
 31
0.0
  0
LINE
  5
FC
330
1F
100
AcDbEntity
  8
0
  6
Continuous
 62
     7
100
AcDbLine
 10
-8.9251391051
 20
12.3287327951
 30
0.0
 11
-8.8351391051
 21
12.3287327951
 31
0.0
  0
LINE
  5
FD
330
1F
100
AcDbEntity
  8
0
  6
Continuous
 62
     7
100
AcDbLine
 10
-8.8351391051
 20
12.3287327951
 30
0.0
 11
-8.8351391051
 21
12.3857327951
 31
0.0
  0
LINE
  5
FE
330
1F
100
AcDbEntity
  8
0
  6
Continuous
 62
     7
100
AcDbLine
 10
-8.8351391051
 20
12.3857327951
 30
0.0
 11
-8.7851391051
 21
12.3857327951
 31
0.0
  0
LINE
  5
FF
330
1F
100
AcDbEntity
  8
0
  6
Continuous
 62
     7
100
AcDbLine
 10
-8.7851391051
 20
12.3857327951
 30
0.0
 11
-8.7851391051
 21
12.4487327951
 31
0.0
  0
LINE
  5
100
330
1F
100
AcDbEntity
  8
0
  6
Continuous
 62
     7
100
AcDbLine
 10
-8.7851391051
 20
12.4487327951
 30
0.0
 11
-8.8351391051
 21
12.4487327951
 31
0.0
  0
LINE
  5
101
330
1F
100
AcDbEntity
  8
0
  6
Continuous
 62
     7
100
AcDbLine
 10
-8.8351391051
 20
12.4487327951
 30
0.0
 11
-8.8351391051
 21
12.5807327951
 31
0.0
  0
LINE
  5
102
330
1F
100
AcDbEntity
  8
0
  6
Continuous
 62
     7
100
AcDbLine
 10
-10.8851391051
 20
6.8407327951
 30
0.0
 11
-10.8851391051
 21
6.7107327951
 31
0.0
  0
LINE
  5
103
330
1F
100
AcDbEntity
  8
0
  6
Continuous
 62
     7
100
AcDbLine
 10
-8.8351391051
 20
12.5807327951
 30
0.0
 11
-7.3851391051
 21
12.5807327951
 31
0.0
  0
LINE
  5
104
330
1F
100
AcDbEntity
  8
0
  6
Continuous
 62
     7
100
AcDbLine
 10
-12.3851391051
 20
9.7757327951
 30
0.0
 11
-12.3851391051
 21
9.6457327951
 31
0.0
  0
LINE
  5
105
330
1F
100
AcDbEntity
  8
0
  6
Continuous
 62
     7
100
AcDbLine
 10
-11.9408577795
 20
12.447184957
 30
0.0
 11
-11.9409893527
 21
12.5791848915
 31
0.0
  0
LINE
  5
106
330
1F
100
AcDbEntity
  8
0
  6
Continuous
 62
     7
100
AcDbLine
 10
-11.9908577547
 20
12.4471351187
 30
0.0
 11
-11.9408577795
 21
12.447184957
 31
0.0
  0
LINE
  5
107
330
1F
100
AcDbEntity
  8
0
  6
Continuous
 62
     7
100
AcDbLine
 10
-11.9907949584
 20
12.38413515
 30
0.0
 11
-11.9908577547
 21
12.4471351187
 31
0.0
  0
LINE
  5
108
330
1F
100
AcDbEntity
  8
0
  6
Continuous
 62
     7
100
AcDbLine
 10
-11.9407949833
 20
12.3841849883
 30
0.0
 11
-11.9907949584
 21
12.38413515
 31
0.0
  0
LINE
  5
109
330
1F
100
AcDbEntity
  8
0
  6
Continuous
 62
     7
100
AcDbLine
 10
-11.9407381676
 20
12.3271850167
 30
0.0
 11
-11.9407949833
 21
12.3841849883
 31
0.0
  0
LINE
  5
10A
330
1F
100
AcDbEntity
  8
0
  6
Continuous
 62
     7
100
AcDbLine
 10
-11.8507382123
 20
12.3272747256
 30
0.0
 11
-11.9407381676
 21
12.3271850167
 31
0.0
  0
LINE
  5
10B
330
1F
100
AcDbEntity
  8
0
  6
Continuous
 62
     7
100
AcDbLine
 10
-11.850795028
 20
12.3842746973
 30
0.0
 11
-11.8507382123
 21
12.3272747256
 31
0.0
  0
LINE
  5
10C
330
1F
100
AcDbEntity
  8
0
  6
Continuous
 62
     7
100
AcDbLine
 10
-11.8007950528
 20
12.3843245356
 30
0.0
 11
-11.850795028
 21
12.3842746973
 31
0.0
  0
LINE
  5
10D
330
1F
100
AcDbEntity
  8
0
  6
Continuous
 62
     7
100
AcDbLine
 10
-11.8008578491
 20
12.4473245043
 30
0.0
 11
-11.8007950528
 21
12.3843245356
 31
0.0
  0
LINE
  5
10E
330
1F
100
AcDbEntity
  8
0
  6
Continuous
 62
     7
100
AcDbLine
 10
-11.8508578243
 20
12.447274666
 30
0.0
 11
-11.8008578491
 21
12.4473245043
 31
0.0
  0
LINE
  5
10F
330
1F
100
AcDbEntity
  8
0
  6
Continuous
 62
     7
100
AcDbLine
 10
-11.8451391051
 20
12.5807327951
 30
0.0
 11
-10.8851391051
 21
12.5807327951
 31
0.0
  0
LINE
  5
110
330
1F
100
AcDbEntity
  8
0
  6
Continuous
 62
     7
100
AcDbLine
 10
-11.8509893974
 20
12.5792746004
 30
0.0
 11
-11.8508578243
 21
12.447274666
 31
0.0
  0
LINE
  5
111
330
1F
100
AcDbEntity
  8
0
  6
Continuous
 62
     7
100
AcDbLine
 10
-10.8851391051
 20
6.7107327951
 30
0.0
 11
-9.8851391051
 21
6.7107327951
 31
0.0
  0
LINE
  5
112
330
1F
100
AcDbEntity
  8
0
  6
Continuous
 62
     7
100
AcDbLine
 10
-9.8851391051
 20
6.7107327951
 30
0.0
 11
-9.8851391051
 21
6.8407327951
 31
0.0
  0
LINE
  5
113
330
1F
100
AcDbEntity
  8
0
  6
Continuous
 62
     7
100
AcDbLine
 10
-9.9768879865
 20
9.7757327951
 30
0.0
 11
-9.9768879865
 21
9.6457327951
 31
0.0
  0
LINE
  5
114
330
1F
100
AcDbEntity
  8
0
  6
Continuous
 62
     7
100
AcDbLine
 10
-13.3851391051
 20
6.8407327951
 30
0.0
 11
-13.3851391051
 21
12.5807327951
 31
0.0
  0
LINE
  5
115
330
1F
100
AcDbEntity
  8
0
  6
Continuous
 62
     7
100
AcDbLine
 10
-7.3851391051
 20
9.1780978709
 30
0.0
 11
-7.3851391051
 21
6.8407327951
 31
0.0
  0
LINE
  5
116
330
1F
100
AcDbEntity
  8
0
  6
Continuous
 62
     7
100
AcDbLine
 10
-9.8851391051
 20
6.8407327951
 30
0.0
 11
-8.9251391051
 21
6.8407327951
 31
0.0
  0
LINE
  5
117
330
1F
100
AcDbEntity
  8
0
  6
Continuous
 62
     7
100
AcDbLine
 10
-11.8509908509
 20
6.8407327951
 30
0.0
 11
-10.8851391051
 21
6.8407327951
 31
0.0
  0
LINE
  5
118
330
1F
100
AcDbEntity
  8
0
  6
Continuous
 62
     7
100
AcDbLine
 10
-11.8509893974
 20
6.8421909898
 30
0.0
 11
-11.8508578243
 21
6.9741909242
 31
0.0
  0
LINE
  5
119
330
1F
100
AcDbEntity
  8
0
  6
Continuous
 62
     7
100
AcDbLine
 10
-11.8508578243
 20
6.9741909242
 30
0.0
 11
-11.8008578491
 21
6.9741410859
 31
0.0
  0
LINE
  5
11A
330
1F
100
AcDbEntity
  8
0
  6
Continuous
 62
     7
100
AcDbLine
 10
-11.8008578491
 20
6.9741410859
 30
0.0
 11
-11.8007950528
 21
7.0371410546
 31
0.0
  0
LINE
  5
11B
330
1F
100
AcDbEntity
  8
0
  6
Continuous
 62
     7
100
AcDbLine
 10
-11.8007950528
 20
7.0371410546
 30
0.0
 11
-11.850795028
 21
7.0371908929
 31
0.0
  0
LINE
  5
11C
330
1F
100
AcDbEntity
  8
0
  6
Continuous
 62
     7
100
AcDbLine
 10
-11.850795028
 20
7.0371908929
 30
0.0
 11
-11.8507382123
 21
7.0941908646
 31
0.0
  0
LINE
  5
11D
330
1F
100
AcDbEntity
  8
0
  6
Continuous
 62
     7
100
AcDbLine
 10
-11.8507382123
 20
7.0941908646
 30
0.0
 11
-11.9407381676
 21
7.0942805736
 31
0.0
  0
LINE
  5
11E
330
1F
100
AcDbEntity
  8
0
  6
Continuous
 62
     7
100
AcDbLine
 10
-11.9407381676
 20
7.0942805736
 30
0.0
 11
-11.9407949833
 21
7.0372806019
 31
0.0
  0
LINE
  5
11F
330
1F
100
AcDbEntity
  8
0
  6
Continuous
 62
     7
100
AcDbLine
 10
-11.9407949833
 20
7.0372806019
 30
0.0
 11
-11.9907949584
 21
7.0373304402
 31
0.0
  0
LINE
  5
120
330
1F
100
AcDbEntity
  8
0
  6
Continuous
 62
     7
100
AcDbLine
 10
-11.9907949584
 20
7.0373304402
 30
0.0
 11
-11.9908577547
 21
6.9743304715
 31
0.0
  0
LINE
  5
121
330
1F
100
AcDbEntity
  8
0
  6
Continuous
 62
     7
100
AcDbLine
 10
-11.9908577547
 20
6.9743304715
 30
0.0
 11
-11.9408577795
 21
6.9742806332
 31
0.0
  0
LINE
  5
122
330
1F
100
AcDbEntity
  8
0
  6
Continuous
 62
     7
100
AcDbLine
 10
-11.9408577795
 20
6.9742806332
 30
0.0
 11
-11.9409893527
 21
6.8422806988
 31
0.0
  0
LINE
  5
123
330
1F
100
AcDbEntity
  8
0
  6
Continuous
 62
     7
100
AcDbLine
 10
-8.8351391051
 20
6.9727327951
 30
0.0
 11
-8.8351391051
 21
6.8407327951
 31
0.0
  0
LINE
  5
124
330
1F
100
AcDbEntity
  8
0
  6
Continuous
 62
     7
100
AcDbLine
 10
-8.7851391051
 20
6.9727327951
 30
0.0
 11
-8.8351391051
 21
6.9727327951
 31
0.0
  0
LINE
  5
125
330
1F
100
AcDbEntity
  8
0
  6
Continuous
 62
     7
100
AcDbLine
 10
-8.7851391051
 20
7.0357327951
 30
0.0
 11
-8.7851391051
 21
6.9727327951
 31
0.0
  0
LINE
  5
126
330
1F
100
AcDbEntity
  8
0
  6
Continuous
 62
     7
100
AcDbLine
 10
-12.3851391051
 20
9.6457327951
 30
0.0
 11
-11.3851391051
 21
9.6457327951
 31
0.0
  0
LINE
  5
127
330
1F
100
AcDbEntity
  8
0
  6
Continuous
 62
     7
100
AcDbLine
 10
-11.3851391051
 20
9.6457327951
 30
0.0
 11
-11.3851391051
 21
9.7757327951
 31
0.0
  0
LINE
  5
128
330
1F
100
AcDbEntity
  8
0
  6
Continuous
 62
     7
100
AcDbLine
 10
-11.3851391051
 20
9.7757327951
 30
0.0
 11
-12.3851391051
 21
9.7757327951
 31
0.0
  0
LINE
  5
129
330
1F
100
AcDbEntity
  8
0
  6
Continuous
 62
     7
100
AcDbLine
 10
-7.3851391051
 20
10.1780978709
 30
0.0
 11
-7.5151391051
 21
10.1780978709
 31
0.0
  0
LINE
  5
12A
330
1F
100
AcDbEntity
  8
0
  6
Continuous
 62
     7
100
AcDbLine
 10
-7.5151391051
 20
10.1780978709
 30
0.0
 11
-7.5151391051
 21
9.1780978709
 31
0.0
  0
LINE
  5
12B
330
1F
100
AcDbEntity
  8
0
  6
Continuous
 62
     7
100
AcDbLine
 10
-7.5151391051
 20
9.1780978709
 30
0.0
 11
-7.3851391051
 21
9.1780978709
 31
0.0
  0
LINE
  5
12C
330
1F
100
AcDbEntity
  8
0
  6
Continuous
 62
     7
100
AcDbLine
 10
-8.8351391051
 20
7.0357327951
 30
0.0
 11
-8.7851391051
 21
7.0357327951
 31
0.0
  0
LINE
  5
12D
330
1F
100
AcDbEntity
  8
0
  6
Continuous
 62
     7
100
AcDbLine
 10
-13.3851391051
 20
6.8407327951
 30
0.0
 11
-11.9409908956
 21
6.8407327951
 31
0.0
  0
LINE
  5
12E
330
1F
100
AcDbEntity
  8
0
  6
Continuous
 62
     7
100
AcDbLine
 10
-8.8351391051
 20
7.0927327951
 30
0.0
 11
-8.8351391051
 21
7.0357327951
 31
0.0
  0
LINE
  5
12F
330
1F
100
AcDbEntity
  8
0
  6
Continuous
 62
     7
100
AcDbLine
 10
-8.9251391051
 20
7.0927327951
 30
0.0
 11
-8.8351391051
 21
7.0927327951
 31
0.0
  0
LINE
  5
130
330
1F
100
AcDbEntity
  8
0
  6
Continuous
 62
     7
100
AcDbLine
 10
-8.9251391051
 20
7.0357327951
 30
0.0
 11
-8.9251391051
 21
7.0927327951
 31
0.0
  0
LINE
  5
131
330
1F
100
AcDbEntity
  8
0
  6
Continuous
 62
     7
100
AcDbLine
 10
-8.9751391051
 20
7.0357327951
 30
0.0
 11
-8.9251391051
 21
7.0357327951
 31
0.0
  0
LINE
  5
132
330
1F
100
AcDbEntity
  8
0
  6
Continuous
 62
     7
100
AcDbLine
 10
-8.9751391051
 20
6.9727327951
 30
0.0
 11
-8.9751391051
 21
7.0357327951
 31
0.0
  0
LINE
  5
133
330
1F
100
AcDbEntity
  8
0
  6
Continuous
 62
     7
100
AcDbLine
 10
-8.9251391051
 20
6.9727327951
 30
0.0
 11
-8.9751391051
 21
6.9727327951
 31
0.0
  0
LINE
  5
134
330
1F
100
AcDbEntity
  8
0
  6
Continuous
 62
     7
100
AcDbLine
 10
-8.9251391051
 20
6.8407327951
 30
0.0
 11
-8.9251391051
 21
6.9727327951
 31
0.0
  0
LINE
  5
135
330
1F
100
AcDbEntity
  8
0
  6
Continuous
 62
     7
100
AcDbLine
 10
-9.9768879865
 20
9.6457327951
 30
0.0
 11
-9.0151391051
 21
9.6457327951
 31
0.0
  0
LINE
  5
136
330
1F
100
AcDbEntity
  8
0
  6
Continuous
 62
     7
100
AcDbLine
 10
-9.0151391051
 20
9.6457327951
 30
0.0
 11
-9.0151391051
 21
9.7757327951
 31
0.0
  0
LINE
  5
137
330
1F
100
AcDbEntity
  8
0
  6
Continuous
 62
     7
100
AcDbLine
 10
-9.0151391051
 20
9.7757327951
 30
0.0
 11
-9.9768879865
 21
9.7757327951
 31
0.0
  0
LINE
  5
138
330
1F
100
AcDbEntity
  8
0
  6
Continuous
 62
     7
100
AcDbLine
 10
-8.8351391051
 20
6.8407327951
 30
0.0
 11
-7.3851391051
 21
6.8407327951
 31
0.0
  0
LINE
  5
139
330
1F
100
AcDbEntity
  8
0
  6
Continuous
 62
     7
100
AcDbLine
 10
6.3856342609
 20
18.1987327951
 30
0.0
 11
6.3856342609
 21
15.2637327951
 31
0.0
  0
LINE
  5
13A
330
1F
100
AcDbEntity
  8
0
  6
Continuous
 62
     7
100
AcDbLine
 10
3.6206342609
 20
18.1987327951
 30
0.0
 11
12.3606342609
 21
18.1987327951
 31
0.0
  0
LINE
  5
13B
330
1F
100
AcDbEntity
  8
0
  6
Continuous
 62
     7
100
AcDbLine
 10
3.6206342609
 20
18.1987327951
 30
0.0
 11
3.6206342609
 21
12.3287327951
 31
0.0
  0
LINE
  5
13C
330
1F
100
AcDbEntity
  8
0
  6
Continuous
 62
     7
100
AcDbLine
 10
3.6206342609
 20
12.3287327951
 30
0.0
 11
12.3606342609
 21
12.3287327951
 31
0.0
  0
LINE
  5
13D
330
1F
100
AcDbEntity
  8
0
  6
Continuous
 62
     7
100
AcDbLine
 10
12.3606342609
 20
18.1987327951
 30
0.0
 11
12.3606342609
 21
12.3287327951
 31
0.0
  0
LINE
  5
13E
330
1F
100
AcDbEntity
  8
0
  6
Continuous
 62
     7
100
AcDbLine
 10
6.3856342609
 20
15.2637327951
 30
0.0
 11
6.5176342609
 21
15.2637327951
 31
0.0
  0
LINE
  5
13F
330
1F
100
AcDbEntity
  8
0
  6
Continuous
 62
     7
100
AcDbLine
 10
6.5176342609
 20
15.2637327951
 30
0.0
 11
6.5176342609
 21
18.1987327951
 31
0.0
  0
LINE
  5
140
330
1F
100
AcDbEntity
  8
0
  6
Continuous
 62
     7
100
AcDbLine
 10
12.3606342609
 20
17.0212446022
 30
0.0
 11
12.4906342609
 21
17.0212446022
 31
0.0
  0
LINE
  5
141
330
1F
100
AcDbEntity
  8
0
  6
Continuous
 62
     7
100
AcDbLine
 10
12.4906342609
 20
17.0212446022
 30
0.0
 11
12.4906342609
 21
16.0212446022
 31
0.0
  0
LINE
  5
142
330
1F
100
AcDbEntity
  8
0
  6
Continuous
 62
     7
100
AcDbLine
 10
12.4906342609
 20
16.0212446022
 30
0.0
 11
12.3606342609
 21
16.0212446022
 31
0.0
  0
LINE
  5
143
330
1F
100
AcDbEntity
  8
0
  6
Continuous
 62
     7
100
AcDbLine
 10
12.3606342609
 20
14.8344448627
 30
0.0
 11
12.4906342609
 21
14.8344448627
 31
0.0
  0
LINE
  5
144
330
1F
100
AcDbEntity
  8
0
  6
Continuous
 62
     7
100
AcDbLine
 10
12.4906342609
 20
14.8344448627
 30
0.0
 11
12.4906342609
 21
13.8344448627
 31
0.0
  0
LINE
  5
145
330
1F
100
AcDbEntity
  8
0
  6
Continuous
 62
     7
100
AcDbLine
 10
12.4906342609
 20
13.8344448627
 30
0.0
 11
12.3606342609
 21
13.8344448627
 31
0.0
  0
LINE
  5
146
330
1F
100
AcDbEntity
  8
0
  6
Continuous
 62
     7
100
AcDbLine
 10
9.5936342609
 20
18.1987327951
 30
0.0
 11
9.5936342609
 21
15.2637327951
 31
0.0
  0
LINE
  5
147
330
1F
100
AcDbEntity
  8
0
  6
Continuous
 62
     7
100
AcDbLine
 10
9.5936342609
 20
15.2637327951
 30
0.0
 11
9.7256342609
 21
15.2637327951
 31
0.0
  0
LINE
  5
148
330
1F
100
AcDbEntity
  8
0
  6
Continuous
 62
     7
100
AcDbLine
 10
9.7256342609
 20
15.2637327951
 30
0.0
 11
9.7256342609
 21
18.1987327951
 31
0.0
  0
LINE
  5
149
330
1F
100
AcDbEntity
  8
0
  6
Continuous
 62
     7
100
AcDbLine
 10
3.4906342609
 20
17.0212446022
 30
0.0
 11
3.6206342609
 21
17.0212446022
 31
0.0
  0
LINE
  5
14A
330
1F
100
AcDbEntity
  8
0
  6
Continuous
 62
     7
100
AcDbLine
 10
-2.7920619785
 20
-3.3846529563
 30
0.0
 11
-2.6620619785
 21
-3.3846529563
 31
0.0
  0
LINE
  5
14B
330
1F
100
AcDbEntity
  8
0
  6
Continuous
 62
     7
100
AcDbLine
 10
-2.6620619785
 20
-3.3846529563
 30
0.0
 11
-2.6620619785
 21
-2.3846529563
 31
0.0
  0
LINE
  5
14C
330
1F
100
AcDbEntity
  8
0
  6
Continuous
 62
     7
100
AcDbLine
 10
-2.7920619785
 20
-2.3846529563
 30
0.0
 11
-2.7920619785
 21
-3.3846529563
 31
0.0
  0
LINE
  5
14D
330
1F
100
AcDbEntity
  8
0
  6
Continuous
 62
     7
100
AcDbLine
 10
-2.6620619785
 20
-2.3846529563
 30
0.0
 11
-2.7920619785
 21
-2.3846529563
 31
0.0
  0
LINE
  5
14E
330
1F
100
AcDbEntity
  8
0
  6
Continuous
 62
     7
100
AcDbLine
 10
-2.6620619785
 20
-1.0446529563
 30
0.0
 11
-2.7920619785
 21
-1.0446529563
 31
0.0
  0
LINE
  5
14F
330
1F
100
AcDbEntity
  8
0
  6
Continuous
 62
     7
100
AcDbLine
 10
-2.7920619785
 20
-1.0446529563
 30
0.0
 11
-2.7920619785
 21
-0.0446529563
 31
0.0
  0
LINE
  5
150
330
1F
100
AcDbEntity
  8
0
  6
Continuous
 62
     7
100
AcDbLine
 10
-2.6620619785
 20
-0.0446529563
 30
0.0
 11
-2.6620619785
 21
-1.0446529563
 31
0.0
  0
LINE
  5
151
330
1F
100
AcDbEntity
  8
0
  6
Continuous
 62
     7
100
AcDbLine
 10
-2.7920619785
 20
-0.0446529563
 30
0.0
 11
-2.6620619785
 21
-0.0446529563
 31
0.0
  0
LINE
  5
152
330
1F
100
AcDbEntity
  8
0
  6
Continuous
 62
     7
100
AcDbLine
 10
3.4906342609
 20
13.8344448627
 30
0.0
 11
3.6206342609
 21
13.8344448627
 31
0.0
  0
LINE
  5
153
330
1F
100
AcDbEntity
  8
0
  6
Continuous
 62
     7
100
AcDbLine
 10
3.6206342609
 20
14.8344448627
 30
0.0
 11
3.4906342609
 21
14.8344448627
 31
0.0
  0
LINE
  5
154
330
1F
100
AcDbEntity
  8
0
  6
Continuous
 62
     7
100
AcDbLine
 10
3.4906342609
 20
14.8344448627
 30
0.0
 11
3.4906342609
 21
13.8344448627
 31
0.0
  0
LINE
  5
155
330
1F
100
AcDbEntity
  8
0
  6
Continuous
 62
     7
100
AcDbLine
 10
3.4906342609
 20
16.0212446022
 30
0.0
 11
3.6206342609
 21
16.0212446022
 31
0.0
  0
LINE
  5
156
330
1F
100
AcDbEntity
  8
0
  6
Continuous
 62
     7
100
AcDbLine
 10
3.4906342609
 20
17.0212446022
 30
0.0
 11
3.4906342609
 21
16.0212446022
 31
0.0
  0
LINE
  5
157
330
1F
100
AcDbEntity
  8
0
  6
Continuous
 62
     7
100
AcDbLine
 10
-20.2245277476
 20
31.1465635287
 30
0.0
 11
-20.2245277476
 21
31.2765635287
 31
0.0
  0
LINE
  5
158
330
1F
100
AcDbEntity
  8
0
  6
Continuous
 62
     7
100
AcDbLine
 10
-21.5545277476
 20
31.1465635287
 30
0.0
 11
-15.6845277476
 21
31.1465635287
 31
0.0
  0
LINE
  5
159
330
1F
100
AcDbEntity
  8
0
  6
Continuous
 62
     7
100
AcDbLine
 10
-21.5545277476
 20
31.1465635287
 30
0.0
 11
-21.5545277476
 21
25.4065635287
 31
0.0
  0
LINE
  5
15A
330
1F
100
AcDbEntity
  8
0
  6
Continuous
 62
     7
100
AcDbLine
 10
-21.5545277476
 20
25.4065635287
 30
0.0
 11
-15.6845277476
 21
25.4065635287
 31
0.0
  0
LINE
  5
15B
330
1F
100
AcDbEntity
  8
0
  6
Continuous
 62
     7
100
AcDbLine
 10
-15.6845277476
 20
31.1465635287
 30
0.0
 11
-15.6845277476
 21
25.4065635287
 31
0.0
  0
LINE
  5
15C
330
1F
100
AcDbEntity
  8
0
  6
Continuous
 62
     7
100
AcDbLine
 10
-20.2245277476
 20
31.2765635287
 30
0.0
 11
-19.2245277476
 21
31.2765635287
 31
0.0
  0
LINE
  5
15D
330
1F
100
AcDbEntity
  8
0
  6
Continuous
 62
     7
100
AcDbLine
 10
-19.2245277476
 20
31.2765635287
 30
0.0
 11
-19.2245277476
 21
31.1465635287
 31
0.0
  0
LINE
  5
15E
330
1F
100
AcDbEntity
  8
0
  6
Continuous
 62
     7
100
AcDbLine
 10
-17.8845277476
 20
31.1465635287
 30
0.0
 11
-17.8845277476
 21
31.2765635287
 31
0.0
  0
LINE
  5
15F
330
1F
100
AcDbEntity
  8
0
  6
Continuous
 62
     7
100
AcDbLine
 10
-17.8845277476
 20
31.2765635287
 30
0.0
 11
-16.8845277476
 21
31.2765635287
 31
0.0
  0
LINE
  5
160
330
1F
100
AcDbEntity
  8
0
  6
Continuous
 62
     7
100
AcDbLine
 10
-16.8845277476
 20
31.2765635287
 30
0.0
 11
-16.8845277476
 21
31.1465635287
 31
0.0
  0
LINE
  5
161
330
1F
100
AcDbEntity
  8
0
  6
Continuous
 62
     7
100
AcDbLine
 10
-21.5545277476
 20
28.3425635287
 30
0.0
 11
-19.2245277476
 21
28.3425635287
 31
0.0
  0
LINE
  5
162
330
1F
100
AcDbEntity
  8
0
  6
Continuous
 62
     7
100
AcDbLine
 10
-16.8845277476
 20
25.2765635287
 30
0.0
 11
-16.8845277476
 21
25.4065635287
 31
0.0
  0
LINE
  5
163
330
1F
100
AcDbEntity
  8
0
  6
Continuous
 62
     7
100
AcDbLine
 10
-17.8845277476
 20
25.2765635287
 30
0.0
 11
-16.8845277476
 21
25.2765635287
 31
0.0
  0
LINE
  5
164
330
1F
100
AcDbEntity
  8
0
  6
Continuous
 62
     7
100
AcDbLine
 10
-17.8845277476
 20
25.4065635287
 30
0.0
 11
-17.8845277476
 21
25.2765635287
 31
0.0
  0
LINE
  5
165
330
1F
100
AcDbEntity
  8
0
  6
Continuous
 62
     7
100
AcDbLine
 10
-19.2245277476
 20
25.2765635287
 30
0.0
 11
-19.2245277476
 21
25.4065635287
 31
0.0
  0
LINE
  5
166
330
1F
100
AcDbEntity
  8
0
  6
Continuous
 62
     7
100
AcDbLine
 10
-20.2245277476
 20
25.2765635287
 30
0.0
 11
-19.2245277476
 21
25.2765635287
 31
0.0
  0
LINE
  5
167
330
1F
100
AcDbEntity
  8
0
  6
Continuous
 62
     7
100
AcDbLine
 10
-20.2245277476
 20
25.4065635287
 30
0.0
 11
-20.2245277476
 21
25.2765635287
 31
0.0
  0
LINE
  5
168
330
1F
100
AcDbEntity
  8
0
  6
Continuous
 62
     7
100
AcDbLine
 10
-19.2245277476
 20
28.3425635287
 30
0.0
 11
-19.2245277476
 21
28.2105635287
 31
0.0
  0
LINE
  5
169
330
1F
100
AcDbEntity
  8
0
  6
Continuous
 62
     7
100
AcDbLine
 10
-19.2245277476
 20
28.2105635287
 30
0.0
 11
-21.5545277476
 21
28.2105635287
 31
0.0
  0
LINE
  5
16A
330
1F
100
AcDbEntity
  8
0
  6
Continuous
 62
     7
100
AcDbLine
 10
4.8603976532
 20
33.5029508903
 30
0.0
 11
4.8603976532
 21
32.5029508903
 31
0.0
  0
LINE
  5
16B
330
1F
100
AcDbEntity
  8
0
  6
Continuous
 62
     7
100
AcDbLine
 10
4.8603976532
 20
33.5029508903
 30
0.0
 11
4.9903976532
 21
33.5029508903
 31
0.0
  0
LINE
  5
16C
330
1F
100
AcDbEntity
  8
0
  6
Continuous
 62
     7
100
AcDbLine
 10
4.9903976532
 20
32.5029508903
 30
0.0
 11
4.9903976532
 21
30.0730783096
 31
0.0
  0
LINE
  5
16D
330
1F
100
AcDbEntity
  8
0
  6
Continuous
 62
     7
100
AcDbLine
 10
4.9903976532
 20
32.5029508903
 30
0.0
 11
4.8603976532
 21
32.5029508903
 31
0.0
  0
LINE
  5
16E
330
1F
100
AcDbEntity
  8
0
  6
Continuous
 62
     7
100
AcDbLine
 10
12.3153976532
 20
35.932823471
 30
0.0
 11
12.3153976532
 21
35.800823471
 31
0.0
  0
LINE
  5
16F
330
1F
100
AcDbEntity
  8
0
  6
Continuous
 62
     7
100
AcDbLine
 10
12.3153976532
 20
35.800823471
 30
0.0
 11
12.2653976532
 21
35.800823471
 31
0.0
  0
LINE
  5
170
330
1F
100
AcDbEntity
  8
0
  6
Continuous
 62
     7
100
AcDbLine
 10
12.2653976532
 20
35.800823471
 30
0.0
 11
12.2653976532
 21
35.737823471
 31
0.0
  0
LINE
  5
171
330
1F
100
AcDbEntity
  8
0
  6
Continuous
 62
     7
100
AcDbLine
 10
12.2653976532
 20
35.737823471
 30
0.0
 11
12.3153976532
 21
35.737823471
 31
0.0
  0
LINE
  5
172
330
1F
100
AcDbEntity
  8
0
  6
Continuous
 62
     7
100
AcDbLine
 10
12.3153976532
 20
35.737823471
 30
0.0
 11
12.3153976532
 21
35.680823471
 31
0.0
  0
LINE
  5
173
330
1F
100
AcDbEntity
  8
0
  6
Continuous
 62
     7
100
AcDbLine
 10
12.3153976532
 20
35.680823471
 30
0.0
 11
12.4053976532
 21
35.680823471
 31
0.0
  0
LINE
  5
174
330
1F
100
AcDbEntity
  8
0
  6
Continuous
 62
     7
100
AcDbLine
 10
12.4053976532
 20
35.680823471
 30
0.0
 11
12.4053976532
 21
35.737823471
 31
0.0
  0
LINE
  5
175
330
1F
100
AcDbEntity
  8
0
  6
Continuous
 62
     7
100
AcDbLine
 10
12.4053976532
 20
35.737823471
 30
0.0
 11
12.4553976532
 21
35.737823471
 31
0.0
  0
LINE
  5
176
330
1F
100
AcDbEntity
  8
0
  6
Continuous
 62
     7
100
AcDbLine
 10
12.4553976532
 20
35.737823471
 30
0.0
 11
12.4553976532
 21
35.800823471
 31
0.0
  0
LINE
  5
177
330
1F
100
AcDbEntity
  8
0
  6
Continuous
 62
     7
100
AcDbLine
 10
12.4553976532
 20
35.800823471
 30
0.0
 11
12.4053976532
 21
35.800823471
 31
0.0
  0
LINE
  5
178
330
1F
100
AcDbEntity
  8
0
  6
Continuous
 62
     7
100
AcDbLine
 10
12.4053976532
 20
35.800823471
 30
0.0
 11
12.4053976532
 21
35.932823471
 31
0.0
  0
LINE
  5
179
330
1F
100
AcDbEntity
  8
0
  6
Continuous
 62
     7
100
AcDbLine
 10
6.4453976532
 20
35.932823471
 30
0.0
 11
6.4453976532
 21
35.800823471
 31
0.0
  0
LINE
  5
17A
330
1F
100
AcDbEntity
  8
0
  6
Continuous
 62
     7
100
AcDbLine
 10
6.4453976532
 20
35.800823471
 30
0.0
 11
6.3953976532
 21
35.800823471
 31
0.0
  0
LINE
  5
17B
330
1F
100
AcDbEntity
  8
0
  6
Continuous
 62
     7
100
AcDbLine
 10
6.3953976532
 20
35.800823471
 30
0.0
 11
6.3953976532
 21
35.737823471
 31
0.0
  0
LINE
  5
17C
330
1F
100
AcDbEntity
  8
0
  6
Continuous
 62
     7
100
AcDbLine
 10
6.3953976532
 20
35.737823471
 30
0.0
 11
6.4453976532
 21
35.737823471
 31
0.0
  0
LINE
  5
17D
330
1F
100
AcDbEntity
  8
0
  6
Continuous
 62
     7
100
AcDbLine
 10
6.4453976532
 20
35.737823471
 30
0.0
 11
6.4453976532
 21
35.680823471
 31
0.0
  0
LINE
  5
17E
330
1F
100
AcDbEntity
  8
0
  6
Continuous
 62
     7
100
AcDbLine
 10
6.4453976532
 20
35.680823471
 30
0.0
 11
6.5353976532
 21
35.680823471
 31
0.0
  0
LINE
  5
17F
330
1F
100
AcDbEntity
  8
0
  6
Continuous
 62
     7
100
AcDbLine
 10
6.5353976532
 20
35.680823471
 30
0.0
 11
6.5353976532
 21
35.737823471
 31
0.0
  0
LINE
  5
180
330
1F
100
AcDbEntity
  8
0
  6
Continuous
 62
     7
100
AcDbLine
 10
6.5353976532
 20
35.737823471
 30
0.0
 11
6.5853976532
 21
35.737823471
 31
0.0
  0
LINE
  5
181
330
1F
100
AcDbEntity
  8
0
  6
Continuous
 62
     7
100
AcDbLine
 10
6.5853976532
 20
35.737823471
 30
0.0
 11
6.5853976532
 21
35.800823471
 31
0.0
  0
LINE
  5
182
330
1F
100
AcDbEntity
  8
0
  6
Continuous
 62
     7
100
AcDbLine
 10
6.5853976532
 20
35.800823471
 30
0.0
 11
6.5353976532
 21
35.800823471
 31
0.0
  0
LINE
  5
183
330
1F
100
AcDbEntity
  8
0
  6
Continuous
 62
     7
100
AcDbLine
 10
6.5353976532
 20
35.800823471
 30
0.0
 11
6.5353976532
 21
35.932823471
 31
0.0
  0
LINE
  5
184
330
1F
100
AcDbEntity
  8
0
  6
Continuous
 62
     7
100
AcDbLine
 10
4.9903976532
 20
31.4579508903
 30
0.0
 11
5.1223976532
 21
31.4579508903
 31
0.0
  0
LINE
  5
185
330
1F
100
AcDbEntity
  8
0
  6
Continuous
 62
     7
100
AcDbLine
 10
5.1223976532
 20
31.4579508903
 30
0.0
 11
5.1223976532
 21
31.4079508903
 31
0.0
  0
LINE
  5
186
330
1F
100
AcDbEntity
  8
0
  6
Continuous
 62
     7
100
AcDbLine
 10
5.1223976532
 20
31.4079508903
 30
0.0
 11
5.1853976532
 21
31.4079508903
 31
0.0
  0
LINE
  5
187
330
1F
100
AcDbEntity
  8
0
  6
Continuous
 62
     7
100
AcDbLine
 10
5.1853976532
 20
31.4079508903
 30
0.0
 11
5.1853976532
 21
31.4579508903
 31
0.0
  0
LINE
  5
188
330
1F
100
AcDbEntity
  8
0
  6
Continuous
 62
     7
100
AcDbLine
 10
5.1853976532
 20
31.4579508903
 30
0.0
 11
5.2423976532
 21
31.4579508903
 31
0.0
  0
LINE
  5
189
330
1F
100
AcDbEntity
  8
0
  6
Continuous
 62
     7
100
AcDbLine
 10
5.2423976532
 20
31.4579508903
 30
0.0
 11
5.2423976532
 21
31.5479508903
 31
0.0
  0
LINE
  5
18A
330
1F
100
AcDbEntity
  8
0
  6
Continuous
 62
     7
100
AcDbLine
 10
5.2423976532
 20
31.5479508903
 30
0.0
 11
5.1853976532
 21
31.5479508903
 31
0.0
  0
LINE
  5
18B
330
1F
100
AcDbEntity
  8
0
  6
Continuous
 62
     7
100
AcDbLine
 10
5.1853976532
 20
31.5479508903
 30
0.0
 11
5.1853976532
 21
31.5979508903
 31
0.0
  0
LINE
  5
18C
330
1F
100
AcDbEntity
  8
0
  6
Continuous
 62
     7
100
AcDbLine
 10
5.1853976532
 20
31.5979508903
 30
0.0
 11
5.1223976532
 21
31.5979508903
 31
0.0
  0
LINE
  5
18D
330
1F
100
AcDbEntity
  8
0
  6
Continuous
 62
     7
100
AcDbLine
 10
5.1223976532
 20
31.5979508903
 30
0.0
 11
5.1223976532
 21
31.5479508903
 31
0.0
  0
LINE
  5
18E
330
1F
100
AcDbEntity
  8
0
  6
Continuous
 62
     7
100
AcDbLine
 10
5.1223976532
 20
31.5479508903
 30
0.0
 11
4.9903976532
 21
31.5479508903
 31
0.0
  0
LINE
  5
18F
330
1F
100
AcDbEntity
  8
0
  6
Continuous
 62
     7
100
AcDbLine
 10
21.243203992
 20
37.0027744027
 30
0.0
 11
21.243203992
 21
36.9047744027
 31
0.0
  0
LINE
  5
190
330
1F
100
AcDbEntity
  8
0
  6
Continuous
 62
     7
100
AcDbLine
 10
9.3803976532
 20
35.932823471
 30
0.0
 11
9.3803976532
 21
35.800823471
 31
0.0
  0
LINE
  5
191
330
1F
100
AcDbEntity
  8
0
  6
Continuous
 62
     7
100
AcDbLine
 10
9.3803976532
 20
35.800823471
 30
0.0
 11
9.3303976532
 21
35.800823471
 31
0.0
  0
LINE
  5
192
330
1F
100
AcDbEntity
  8
0
  6
Continuous
 62
     7
100
AcDbLine
 10
9.3303976532
 20
35.800823471
 30
0.0
 11
9.3303976532
 21
35.737823471
 31
0.0
  0
LINE
  5
193
330
1F
100
AcDbEntity
  8
0
  6
Continuous
 62
     7
100
AcDbLine
 10
9.3303976532
 20
35.737823471
 30
0.0
 11
9.3803976532
 21
35.737823471
 31
0.0
  0
LINE
  5
194
330
1F
100
AcDbEntity
  8
0
  6
Continuous
 62
     7
100
AcDbLine
 10
9.3803976532
 20
35.737823471
 30
0.0
 11
9.3803976532
 21
35.680823471
 31
0.0
  0
LINE
  5
195
330
1F
100
AcDbEntity
  8
0
  6
Continuous
 62
     7
100
AcDbLine
 10
9.3803976532
 20
35.680823471
 30
0.0
 11
9.4703976532
 21
35.680823471
 31
0.0
  0
LINE
  5
196
330
1F
100
AcDbEntity
  8
0
  6
Continuous
 62
     7
100
AcDbLine
 10
9.4703976532
 20
35.680823471
 30
0.0
 11
9.4703976532
 21
35.737823471
 31
0.0
  0
LINE
  5
197
330
1F
100
AcDbEntity
  8
0
  6
Continuous
 62
     7
100
AcDbLine
 10
9.4703976532
 20
35.737823471
 30
0.0
 11
9.5203976532
 21
35.737823471
 31
0.0
  0
LINE
  5
198
330
1F
100
AcDbEntity
  8
0
  6
Continuous
 62
     7
100
AcDbLine
 10
9.5203976532
 20
35.737823471
 30
0.0
 11
9.5203976532
 21
35.800823471
 31
0.0
  0
LINE
  5
199
330
1F
100
AcDbEntity
  8
0
  6
Continuous
 62
     7
100
AcDbLine
 10
9.5203976532
 20
35.800823471
 30
0.0
 11
9.4703976532
 21
35.800823471
 31
0.0
  0
LINE
  5
19A
330
1F
100
AcDbEntity
  8
0
  6
Continuous
 62
     7
100
AcDbLine
 10
12.0599935722
 20
35.932823471
 30
0.0
 11
12.4053976532
 21
35.932823471
 31
0.0
  0
LINE
  5
19B
330
1F
100
AcDbEntity
  8
0
  6
Continuous
 62
     7
100
AcDbLine
 10
9.4703976532
 20
35.800823471
 30
0.0
 11
9.4703976532
 21
35.932823471
 31
0.0
  0
LINE
  5
19C
330
1F
100
AcDbEntity
  8
0
  6
Continuous
 62
     7
100
AcDbLine
 10
4.9903976532
 20
35.932823471
 30
0.0
 11
6.4453976532
 21
35.932823471
 31
0.0
  0
LINE
  5
19D
330
1F
100
AcDbEntity
  8
0
  6
Continuous
 62
     7
100
AcDbLine
 10
13.7303976532
 20
32.5029508903
 30
0.0
 11
13.7303976532
 21
30.0730783096
 31
0.0
  0
LINE
  5
19E
330
1F
100
AcDbEntity
  8
0
  6
Continuous
 62
     7
100
AcDbLine
 10
12.4053976532
 20
30.0730783096
 30
0.0
 11
13.7303976532
 21
30.0730783096
 31
0.0
  0
LINE
  5
19F
330
1F
100
AcDbEntity
  8
0
  6
Continuous
 62
     7
100
AcDbLine
 10
9.4253976532
 20
35.932823471
 30
0.0
 11
9.3803976532
 21
35.932823471
 31
0.0
  0
LINE
  5
1A0
330
1F
100
AcDbEntity
  8
0
  6
Continuous
 62
     7
100
AcDbLine
 10
21.243203992
 20
36.9047744027
 30
0.0
 11
21.373203992
 21
36.9047744027
 31
0.0
  0
LINE
  5
1A1
330
1F
100
AcDbEntity
  8
0
  6
Continuous
 62
     7
100
AcDbLine
 10
21.373203992
 20
36.9047744027
 30
0.0
 11
21.373203992
 21
34.3677744027
 31
0.0
  0
LINE
  5
1A2
330
1F
100
AcDbEntity
  8
0
  6
Continuous
 62
     7
100
AcDbLine
 10
21.373203992
 20
34.3677744027
 30
0.0
 11
24.178203992
 21
34.3677744027
 31
0.0
  0
LINE
  5
1A3
330
1F
100
AcDbEntity
  8
0
  6
Continuous
 62
     7
100
AcDbLine
 10
24.178203992
 20
34.3677744027
 30
0.0
 11
24.178203992
 21
36.9047744027
 31
0.0
  0
LINE
  5
1A4
330
1F
100
AcDbEntity
  8
0
  6
Continuous
 62
     7
100
AcDbLine
 10
13.5983976532
 20
34.477823471
 30
0.0
 11
13.7303976532
 21
34.477823471
 31
0.0
  0
LINE
  5
1A5
330
1F
100
AcDbEntity
  8
0
  6
Continuous
 62
     7
100
AcDbLine
 10
4.9903976532
 20
35.932823471
 30
0.0
 11
7.2990291089
 21
35.932823471
 31
0.0
  0
LINE
  5
1A6
330
1F
100
AcDbEntity
  8
0
  6
Continuous
 62
     7
100
AcDbLine
 10
7.2990291089
 20
35.932823471
 30
0.0
 11
7.2990291089
 21
36.0029508903
 31
0.0
  0
LINE
  5
1A7
330
1F
100
AcDbEntity
  8
0
  6
Continuous
 62
     7
100
AcDbLine
 10
7.2990291089
 20
36.0029508903
 30
0.0
 11
7.8857625304
 21
36.0029508903
 31
0.0
  0
LINE
  5
1A8
330
1F
100
AcDbEntity
  8
0
  6
Continuous
 62
     7
100
AcDbLine
 10
7.8857625304
 20
36.0029508903
 30
0.0
 11
7.8857625304
 21
35.932823471
 31
0.0
  0
LINE
  5
1A9
330
1F
100
AcDbEntity
  8
0
  6
Continuous
 62
     7
100
AcDbLine
 10
7.8857625304
 20
35.932823471
 30
0.0
 11
11.2243473259
 21
35.932823471
 31
0.0
  0
LINE
  5
1AA
330
1F
100
AcDbEntity
  8
0
  6
Continuous
 62
     7
100
AcDbLine
 10
11.2243473259
 20
35.932823471
 30
0.0
 11
11.2243473259
 21
36.0029508903
 31
0.0
  0
LINE
  5
1AB
330
1F
100
AcDbEntity
  8
0
  6
Continuous
 62
     7
100
AcDbLine
 10
11.2243473259
 20
36.0029508903
 30
0.0
 11
12.0599935722
 21
36.0029508903
 31
0.0
  0
LINE
  5
1AC
330
1F
100
AcDbEntity
  8
0
  6
Continuous
 62
     7
100
AcDbLine
 10
12.0599935722
 20
36.0029508903
 30
0.0
 11
12.0599935722
 21
35.932823471
 31
0.0
  0
LINE
  5
1AD
330
1F
100
AcDbEntity
  8
0
  6
Continuous
 62
     7
100
AcDbLine
 10
4.9903976532
 20
35.932823471
 30
0.0
 11
4.9903976532
 21
33.5029508903
 31
0.0
  0
LINE
  5
1AE
330
1F
100
AcDbEntity
  8
0
  6
Continuous
 62
     7
100
AcDbLine
 10
4.9903976532
 20
35.932823471
 30
0.0
 11
4.9903976532
 21
34.477823471
 31
0.0
  0
LINE
  5
1AF
330
1F
100
AcDbEntity
  8
0
  6
Continuous
 62
     7
100
AcDbLine
 10
4.9903976532
 20
34.387823471
 30
0.0
 11
5.1223976532
 21
34.387823471
 31
0.0
  0
LINE
  5
1B0
330
1F
100
AcDbEntity
  8
0
  6
Continuous
 62
     7
100
AcDbLine
 10
5.1223976532
 20
34.387823471
 30
0.0
 11
5.1223976532
 21
34.337823471
 31
0.0
  0
LINE
  5
1B1
330
1F
100
AcDbEntity
  8
0
  6
Continuous
 62
     7
100
AcDbLine
 10
5.1223976532
 20
34.337823471
 30
0.0
 11
5.1853976532
 21
34.337823471
 31
0.0
  0
LINE
  5
1B2
330
1F
100
AcDbEntity
  8
0
  6
Continuous
 62
     7
100
AcDbLine
 10
5.1853976532
 20
34.337823471
 30
0.0
 11
5.1853976532
 21
34.387823471
 31
0.0
  0
LINE
  5
1B3
330
1F
100
AcDbEntity
  8
0
  6
Continuous
 62
     7
100
AcDbLine
 10
5.1853976532
 20
34.387823471
 30
0.0
 11
5.2423976532
 21
34.387823471
 31
0.0
  0
LINE
  5
1B4
330
1F
100
AcDbEntity
  8
0
  6
Continuous
 62
     7
100
AcDbLine
 10
5.2423976532
 20
34.387823471
 30
0.0
 11
5.2423976532
 21
34.477823471
 31
0.0
  0
LINE
  5
1B5
330
1F
100
AcDbEntity
  8
0
  6
Continuous
 62
     7
100
AcDbLine
 10
5.2423976532
 20
34.477823471
 30
0.0
 11
5.1853976532
 21
34.477823471
 31
0.0
  0
LINE
  5
1B6
330
1F
100
AcDbEntity
  8
0
  6
Continuous
 62
     7
100
AcDbLine
 10
5.1853976532
 20
34.477823471
 30
0.0
 11
5.1853976532
 21
34.527823471
 31
0.0
  0
LINE
  5
1B7
330
1F
100
AcDbEntity
  8
0
  6
Continuous
 62
     7
100
AcDbLine
 10
5.1853976532
 20
34.527823471
 30
0.0
 11
5.1223976532
 21
34.527823471
 31
0.0
  0
LINE
  5
1B8
330
1F
100
AcDbEntity
  8
0
  6
Continuous
 62
     7
100
AcDbLine
 10
5.1223976532
 20
34.527823471
 30
0.0
 11
5.1223976532
 21
34.477823471
 31
0.0
  0
LINE
  5
1B9
330
1F
100
AcDbEntity
  8
0
  6
Continuous
 62
     7
100
AcDbLine
 10
5.1223976532
 20
34.477823471
 30
0.0
 11
4.9903976532
 21
34.477823471
 31
0.0
  0
LINE
  5
1BA
330
1F
100
AcDbEntity
  8
0
  6
Continuous
 62
     7
100
AcDbLine
 10
13.5983976532
 20
34.527823471
 30
0.0
 11
13.5983976532
 21
34.477823471
 31
0.0
  0
LINE
  5
1BB
330
1F
100
AcDbEntity
  8
0
  6
Continuous
 62
     7
100
AcDbLine
 10
13.5353976532
 20
34.527823471
 30
0.0
 11
13.5983976532
 21
34.527823471
 31
0.0
  0
LINE
  5
1BC
330
1F
100
AcDbEntity
  8
0
  6
Continuous
 62
     7
100
AcDbLine
 10
13.5353976532
 20
34.477823471
 30
0.0
 11
13.5353976532
 21
34.527823471
 31
0.0
  0
LINE
  5
1BD
330
1F
100
AcDbEntity
  8
0
  6
Continuous
 62
     7
100
AcDbLine
 10
13.4783976532
 20
34.477823471
 30
0.0
 11
13.5353976532
 21
34.477823471
 31
0.0
  0
LINE
  5
1BE
330
1F
100
AcDbEntity
  8
0
  6
Continuous
 62
     7
100
AcDbLine
 10
13.4783976532
 20
34.387823471
 30
0.0
 11
13.4783976532
 21
34.477823471
 31
0.0
  0
LINE
  5
1BF
330
1F
100
AcDbEntity
  8
0
  6
Continuous
 62
     7
100
AcDbLine
 10
13.5353976532
 20
34.387823471
 30
0.0
 11
13.4783976532
 21
34.387823471
 31
0.0
  0
LINE
  5
1C0
330
1F
100
AcDbEntity
  8
0
  6
Continuous
 62
     7
100
AcDbLine
 10
13.5353976532
 20
34.337823471
 30
0.0
 11
13.5353976532
 21
34.387823471
 31
0.0
  0
LINE
  5
1C1
330
1F
100
AcDbEntity
  8
0
  6
Continuous
 62
     7
100
AcDbLine
 10
13.5983976532
 20
34.337823471
 30
0.0
 11
13.5353976532
 21
34.337823471
 31
0.0
  0
LINE
  5
1C2
330
1F
100
AcDbEntity
  8
0
  6
Continuous
 62
     7
100
AcDbLine
 10
13.5983976532
 20
34.387823471
 30
0.0
 11
13.5983976532
 21
34.337823471
 31
0.0
  0
LINE
  5
1C3
330
1F
100
AcDbEntity
  8
0
  6
Continuous
 62
     7
100
AcDbLine
 10
13.7303976532
 20
34.387823471
 30
0.0
 11
13.5983976532
 21
34.387823471
 31
0.0
  0
LINE
  5
1C4
330
1F
100
AcDbEntity
  8
0
  6
Continuous
 62
     7
100
AcDbLine
 10
13.7303976532
 20
35.932823471
 30
0.0
 11
13.7303976532
 21
34.477823471
 31
0.0
  0
LINE
  5
1C5
330
1F
100
AcDbEntity
  8
0
  6
Continuous
 62
     7
100
AcDbLine
 10
13.7303976532
 20
35.932823471
 30
0.0
 11
13.7303976532
 21
33.5029508903
 31
0.0
  0
LINE
  5
1C6
330
1F
100
AcDbEntity
  8
0
  6
Continuous
 62
     7
100
AcDbLine
 10
24.178203992
 20
36.9047744027
 30
0.0
 11
24.308203992
 21
36.9047744027
 31
0.0
  0
LINE
  5
1C7
330
1F
100
AcDbEntity
  8
0
  6
Continuous
 62
     7
100
AcDbLine
 10
13.5983976532
 20
31.5479508903
 30
0.0
 11
13.7303976532
 21
31.5479508903
 31
0.0
  0
LINE
  5
1C8
330
1F
100
AcDbEntity
  8
0
  6
Continuous
 62
     7
100
AcDbLine
 10
13.5983976532
 20
31.5979508903
 30
0.0
 11
13.5983976532
 21
31.5479508903
 31
0.0
  0
LINE
  5
1C9
330
1F
100
AcDbEntity
  8
0
  6
Continuous
 62
     7
100
AcDbLine
 10
13.5353976532
 20
31.5979508903
 30
0.0
 11
13.5983976532
 21
31.5979508903
 31
0.0
  0
LINE
  5
1CA
330
1F
100
AcDbEntity
  8
0
  6
Continuous
 62
     7
100
AcDbLine
 10
13.5353976532
 20
31.5479508903
 30
0.0
 11
13.5353976532
 21
31.5979508903
 31
0.0
  0
LINE
  5
1CB
330
1F
100
AcDbEntity
  8
0
  6
Continuous
 62
     7
100
AcDbLine
 10
13.4783976532
 20
31.5479508903
 30
0.0
 11
13.5353976532
 21
31.5479508903
 31
0.0
  0
LINE
  5
1CC
330
1F
100
AcDbEntity
  8
0
  6
Continuous
 62
     7
100
AcDbLine
 10
13.4783976532
 20
31.4579508903
 30
0.0
 11
13.4783976532
 21
31.5479508903
 31
0.0
  0
LINE
  5
1CD
330
1F
100
AcDbEntity
  8
0
  6
Continuous
 62
     7
100
AcDbLine
 10
13.5353976532
 20
31.4579508903
 30
0.0
 11
13.4783976532
 21
31.4579508903
 31
0.0
  0
LINE
  5
1CE
330
1F
100
AcDbEntity
  8
0
  6
Continuous
 62
     7
100
AcDbLine
 10
13.5353976532
 20
31.4079508903
 30
0.0
 11
13.5353976532
 21
31.4579508903
 31
0.0
  0
LINE
  5
1CF
330
1F
100
AcDbEntity
  8
0
  6
Continuous
 62
     7
100
AcDbLine
 10
13.5983976532
 20
31.4079508903
 30
0.0
 11
13.5353976532
 21
31.4079508903
 31
0.0
  0
LINE
  5
1D0
330
1F
100
AcDbEntity
  8
0
  6
Continuous
 62
     7
100
AcDbLine
 10
13.5983976532
 20
31.4579508903
 30
0.0
 11
13.5983976532
 21
31.4079508903
 31
0.0
  0
LINE
  5
1D1
330
1F
100
AcDbEntity
  8
0
  6
Continuous
 62
     7
100
AcDbLine
 10
13.7303976532
 20
31.4579508903
 30
0.0
 11
13.5983976532
 21
31.4579508903
 31
0.0
  0
LINE
  5
1D2
330
1F
100
AcDbEntity
  8
0
  6
Continuous
 62
     7
100
AcDbLine
 10
13.7303976532
 20
32.5029508903
 30
0.0
 11
13.8603976532
 21
32.5029508903
 31
0.0
  0
LINE
  5
1D3
330
1F
100
AcDbEntity
  8
0
  6
Continuous
 62
     7
100
AcDbLine
 10
24.308203992
 20
36.9047744027
 30
0.0
 11
24.308203992
 21
37.0027744027
 31
0.0
  0
LINE
  5
1D4
330
1F
100
AcDbEntity
  8
0
  6
Continuous
 62
     7
100
AcDbLine
 10
13.8603976532
 20
33.5029508903
 30
0.0
 11
13.7303976532
 21
33.5029508903
 31
0.0
  0
LINE
  5
1D5
330
1F
100
AcDbEntity
  8
0
  6
Continuous
 62
     7
100
AcDbLine
 10
13.8603976532
 20
33.5029508903
 30
0.0
 11
13.8603976532
 21
32.5029508903
 31
0.0
  0
LINE
  5
1D6
330
1F
100
AcDbEntity
  8
0
  6
Continuous
 62
     7
100
AcDbLine
 10
12.4053976532
 20
35.932823471
 30
0.0
 11
13.7303976532
 21
35.932823471
 31
0.0
  0
LINE
  5
1D7
330
1F
100
AcDbEntity
  8
0
  6
Continuous
 62
     7
100
AcDbLine
 10
13.7303976532
 20
33.5029508903
 30
0.0
 11
13.8603976532
 21
33.5029508903
 31
0.0
  0
LINE
  5
1D8
330
1F
100
AcDbEntity
  8
0
  6
Continuous
 62
     7
100
AcDbLine
 10
13.8603976532
 20
32.5029508903
 30
0.0
 11
13.7303976532
 21
32.5029508903
 31
0.0
  0
LINE
  5
1D9
330
1F
100
AcDbEntity
  8
0
  6
Continuous
 62
     7
100
AcDbLine
 10
24.308203992
 20
37.0027744027
 30
0.0
 11
21.243203992
 21
37.0027744027
 31
0.0
  0
LINE
  5
1DA
330
1F
100
AcDbEntity
  8
0
  6
Continuous
 62
     7
100
AcDbLine
 10
18.4520682232
 20
33.287931967
 30
0.0
 11
18.4520682232
 21
33.189931967
 31
0.0
  0
LINE
  5
1DB
330
1F
100
AcDbEntity
  8
0
  6
Continuous
 62
     7
100
AcDbLine
 10
12.0599935722
 20
30.0029508903
 30
0.0
 11
12.0599935722
 21
30.0730783096
 31
0.0
  0
LINE
  5
1DC
330
1F
100
AcDbEntity
  8
0
  6
Continuous
 62
     7
100
AcDbLine
 10
11.2243473259
 20
30.0029508903
 30
0.0
 11
12.0599935722
 21
30.0029508903
 31
0.0
  0
LINE
  5
1DD
330
1F
100
AcDbEntity
  8
0
  6
Continuous
 62
     7
100
AcDbLine
 10
11.2243473259
 20
30.0730783096
 30
0.0
 11
11.2243473259
 21
30.0029508903
 31
0.0
  0
LINE
  5
1DE
330
1F
100
AcDbEntity
  8
0
  6
Continuous
 62
     7
100
AcDbLine
 10
7.8857625304
 20
30.0730783096
 30
0.0
 11
11.2243473259
 21
30.0730783096
 31
0.0
  0
LINE
  5
1DF
330
1F
100
AcDbEntity
  8
0
  6
Continuous
 62
     7
100
AcDbLine
 10
7.8857625304
 20
30.0029508903
 30
0.0
 11
7.8857625304
 21
30.0730783096
 31
0.0
  0
LINE
  5
1E0
330
1F
100
AcDbEntity
  8
0
  6
Continuous
 62
     7
100
AcDbLine
 10
7.2990291089
 20
30.0029508903
 30
0.0
 11
7.8857625304
 21
30.0029508903
 31
0.0
  0
LINE
  5
1E1
330
1F
100
AcDbEntity
  8
0
  6
Continuous
 62
     7
100
AcDbLine
 10
7.2990291089
 20
30.0730783096
 30
0.0
 11
7.2990291089
 21
30.0029508903
 31
0.0
  0
LINE
  5
1E2
330
1F
100
AcDbEntity
  8
0
  6
Continuous
 62
     7
100
AcDbLine
 10
4.9903976532
 20
30.0730783096
 30
0.0
 11
7.2990291089
 21
30.0730783096
 31
0.0
  0
LINE
  5
1E3
330
1F
100
AcDbEntity
  8
0
  6
Continuous
 62
     7
100
AcDbLine
 10
9.4253976532
 20
30.0730783096
 30
0.0
 11
9.3803976532
 21
30.0730783096
 31
0.0
  0
LINE
  5
1E4
330
1F
100
AcDbEntity
  8
0
  6
Continuous
 62
     7
100
AcDbLine
 10
4.9903976532
 20
30.0730783096
 30
0.0
 11
6.4453976532
 21
30.0730783096
 31
0.0
  0
LINE
  5
1E5
330
1F
100
AcDbEntity
  8
0
  6
Continuous
 62
     7
100
AcDbLine
 10
9.4703976532
 20
30.2050783096
 30
0.0
 11
9.4703976532
 21
30.0730783096
 31
0.0
  0
LINE
  5
1E6
330
1F
100
AcDbEntity
  8
0
  6
Continuous
 62
     7
100
AcDbLine
 10
12.0599935722
 20
30.0730783096
 30
0.0
 11
12.4053976532
 21
30.0730783096
 31
0.0
  0
LINE
  5
1E7
330
1F
100
AcDbEntity
  8
0
  6
Continuous
 62
     7
100
AcDbLine
 10
9.5203976532
 20
30.2050783096
 30
0.0
 11
9.4703976532
 21
30.2050783096
 31
0.0
  0
LINE
  5
1E8
330
1F
100
AcDbEntity
  8
0
  6
Continuous
 62
     7
100
AcDbLine
 10
9.5203976532
 20
30.2680783096
 30
0.0
 11
9.5203976532
 21
30.2050783096
 31
0.0
  0
LINE
  5
1E9
330
1F
100
AcDbEntity
  8
0
  6
Continuous
 62
     7
100
AcDbLine
 10
9.4703976532
 20
30.2680783096
 30
0.0
 11
9.5203976532
 21
30.2680783096
 31
0.0
  0
LINE
  5
1EA
330
1F
100
AcDbEntity
  8
0
  6
Continuous
 62
     7
100
AcDbLine
 10
9.4703976532
 20
30.3250783096
 30
0.0
 11
9.4703976532
 21
30.2680783096
 31
0.0
  0
LINE
  5
1EB
330
1F
100
AcDbEntity
  8
0
  6
Continuous
 62
     7
100
AcDbLine
 10
9.3803976532
 20
30.3250783096
 30
0.0
 11
9.4703976532
 21
30.3250783096
 31
0.0
  0
LINE
  5
1EC
330
1F
100
AcDbEntity
  8
0
  6
Continuous
 62
     7
100
AcDbLine
 10
9.3803976532
 20
30.2680783096
 30
0.0
 11
9.3803976532
 21
30.3250783096
 31
0.0
  0
LINE
  5
1ED
330
1F
100
AcDbEntity
  8
0
  6
Continuous
 62
     7
100
AcDbLine
 10
9.3303976532
 20
30.2680783096
 30
0.0
 11
9.3803976532
 21
30.2680783096
 31
0.0
  0
LINE
  5
1EE
330
1F
100
AcDbEntity
  8
0
  6
Continuous
 62
     7
100
AcDbLine
 10
9.3303976532
 20
30.2050783096
 30
0.0
 11
9.3303976532
 21
30.2680783096
 31
0.0
  0
LINE
  5
1EF
330
1F
100
AcDbEntity
  8
0
  6
Continuous
 62
     7
100
AcDbLine
 10
9.3803976532
 20
30.2050783096
 30
0.0
 11
9.3303976532
 21
30.2050783096
 31
0.0
  0
LINE
  5
1F0
330
1F
100
AcDbEntity
  8
0
  6
Continuous
 62
     7
100
AcDbLine
 10
9.3803976532
 20
30.0730783096
 30
0.0
 11
9.3803976532
 21
30.2050783096
 31
0.0
  0
LINE
  5
1F1
330
1F
100
AcDbEntity
  8
0
  6
Continuous
 62
     7
100
AcDbLine
 10
6.5353976532
 20
30.2050783096
 30
0.0
 11
6.5353976532
 21
30.0730783096
 31
0.0
  0
LINE
  5
1F2
330
1F
100
AcDbEntity
  8
0
  6
Continuous
 62
     7
100
AcDbLine
 10
6.5853976532
 20
30.2050783096
 30
0.0
 11
6.5353976532
 21
30.2050783096
 31
0.0
  0
LINE
  5
1F3
330
1F
100
AcDbEntity
  8
0
  6
Continuous
 62
     7
100
AcDbLine
 10
6.5853976532
 20
30.2680783096
 30
0.0
 11
6.5853976532
 21
30.2050783096
 31
0.0
  0
LINE
  5
1F4
330
1F
100
AcDbEntity
  8
0
  6
Continuous
 62
     7
100
AcDbLine
 10
6.5353976532
 20
30.2680783096
 30
0.0
 11
6.5853976532
 21
30.2680783096
 31
0.0
  0
LINE
  5
1F5
330
1F
100
AcDbEntity
  8
0
  6
Continuous
 62
     7
100
AcDbLine
 10
6.5353976532
 20
30.3250783096
 30
0.0
 11
6.5353976532
 21
30.2680783096
 31
0.0
  0
LINE
  5
1F6
330
1F
100
AcDbEntity
  8
0
  6
Continuous
 62
     7
100
AcDbLine
 10
6.4453976532
 20
30.3250783096
 30
0.0
 11
6.5353976532
 21
30.3250783096
 31
0.0
  0
LINE
  5
1F7
330
1F
100
AcDbEntity
  8
0
  6
Continuous
 62
     7
100
AcDbLine
 10
6.4453976532
 20
30.2680783096
 30
0.0
 11
6.4453976532
 21
30.3250783096
 31
0.0
  0
LINE
  5
1F8
330
1F
100
AcDbEntity
  8
0
  6
Continuous
 62
     7
100
AcDbLine
 10
6.3953976532
 20
30.2680783096
 30
0.0
 11
6.4453976532
 21
30.2680783096
 31
0.0
  0
LINE
  5
1F9
330
1F
100
AcDbEntity
  8
0
  6
Continuous
 62
     7
100
AcDbLine
 10
6.3953976532
 20
30.2050783096
 30
0.0
 11
6.3953976532
 21
30.2680783096
 31
0.0
  0
LINE
  5
1FA
330
1F
100
AcDbEntity
  8
0
  6
Continuous
 62
     7
100
AcDbLine
 10
6.4453976532
 20
30.2050783096
 30
0.0
 11
6.3953976532
 21
30.2050783096
 31
0.0
  0
LINE
  5
1FB
330
1F
100
AcDbEntity
  8
0
  6
Continuous
 62
     7
100
AcDbLine
 10
6.4453976532
 20
30.0730783096
 30
0.0
 11
6.4453976532
 21
30.2050783096
 31
0.0
  0
LINE
  5
1FC
330
1F
100
AcDbEntity
  8
0
  6
Continuous
 62
     7
100
AcDbLine
 10
12.4053976532
 20
30.2050783096
 30
0.0
 11
12.4053976532
 21
30.0730783096
 31
0.0
  0
LINE
  5
1FD
330
1F
100
AcDbEntity
  8
0
  6
Continuous
 62
     7
100
AcDbLine
 10
12.4553976532
 20
30.2050783096
 30
0.0
 11
12.4053976532
 21
30.2050783096
 31
0.0
  0
LINE
  5
1FE
330
1F
100
AcDbEntity
  8
0
  6
Continuous
 62
     7
100
AcDbLine
 10
12.4553976532
 20
30.2680783096
 30
0.0
 11
12.4553976532
 21
30.2050783096
 31
0.0
  0
LINE
  5
1FF
330
1F
100
AcDbEntity
  8
0
  6
Continuous
 62
     7
100
AcDbLine
 10
12.4053976532
 20
30.2680783096
 30
0.0
 11
12.4553976532
 21
30.2680783096
 31
0.0
  0
LINE
  5
200
330
1F
100
AcDbEntity
  8
0
  6
Continuous
 62
     7
100
AcDbLine
 10
12.4053976532
 20
30.3250783096
 30
0.0
 11
12.4053976532
 21
30.2680783096
 31
0.0
  0
LINE
  5
201
330
1F
100
AcDbEntity
  8
0
  6
Continuous
 62
     7
100
AcDbLine
 10
12.3153976532
 20
30.3250783096
 30
0.0
 11
12.4053976532
 21
30.3250783096
 31
0.0
  0
LINE
  5
202
330
1F
100
AcDbEntity
  8
0
  6
Continuous
 62
     7
100
AcDbLine
 10
12.3153976532
 20
30.2680783096
 30
0.0
 11
12.3153976532
 21
30.3250783096
 31
0.0
  0
LINE
  5
203
330
1F
100
AcDbEntity
  8
0
  6
Continuous
 62
     7
100
AcDbLine
 10
12.2653976532
 20
30.2680783096
 30
0.0
 11
12.3153976532
 21
30.2680783096
 31
0.0
  0
LINE
  5
204
330
1F
100
AcDbEntity
  8
0
  6
Continuous
 62
     7
100
AcDbLine
 10
12.2653976532
 20
30.2050783096
 30
0.0
 11
12.2653976532
 21
30.2680783096
 31
0.0
  0
LINE
  5
205
330
1F
100
AcDbEntity
  8
0
  6
Continuous
 62
     7
100
AcDbLine
 10
12.3153976532
 20
30.2050783096
 30
0.0
 11
12.2653976532
 21
30.2050783096
 31
0.0
  0
LINE
  5
206
330
1F
100
AcDbEntity
  8
0
  6
Continuous
 62
     7
100
AcDbLine
 10
12.3153976532
 20
30.0730783096
 30
0.0
 11
12.3153976532
 21
30.2050783096
 31
0.0
  0
LINE
  5
207
330
1F
100
AcDbEntity
  8
0
  6
Continuous
 62
     7
100
AcDbLine
 10
18.4520682232
 20
33.189931967
 30
0.0
 11
18.5820682232
 21
33.189931967
 31
0.0
  0
LINE
  5
208
330
1F
100
AcDbEntity
  8
0
  6
Continuous
 62
     7
100
AcDbLine
 10
18.5820682232
 20
33.189931967
 30
0.0
 11
18.5820682232
 21
30.652931967
 31
0.0
  0
LINE
  5
209
330
1F
100
AcDbEntity
  8
0
  6
Continuous
 62
     7
100
AcDbLine
 10
18.5820682232
 20
30.652931967
 30
0.0
 11
21.3870682232
 21
30.652931967
 31
0.0
  0
LINE
  5
20A
330
1F
100
AcDbEntity
  8
0
  6
Continuous
 62
     7
100
AcDbLine
 10
21.3870682232
 20
30.652931967
 30
0.0
 11
21.3870682232
 21
33.189931967
 31
0.0
  0
LINE
  5
20B
330
1F
100
AcDbEntity
  8
0
  6
Continuous
 62
     7
100
AcDbLine
 10
21.3870682232
 20
33.189931967
 30
0.0
 11
21.5170682232
 21
33.189931967
 31
0.0
  0
LINE
  5
20C
330
1F
100
AcDbEntity
  8
0
  6
Continuous
 62
     7
100
AcDbLine
 10
21.5170682232
 20
33.189931967
 30
0.0
 11
21.5170682232
 21
33.287931967
 31
0.0
  0
LINE
  5
20D
330
1F
100
AcDbEntity
  8
0
  6
Continuous
 62
     7
100
AcDbLine
 10
21.5170682232
 20
33.287931967
 30
0.0
 11
18.4520682232
 21
33.287931967
 31
0.0
  0
LINE
  5
20E
330
1F
100
AcDbEntity
  8
0
  6
Continuous
 62
     7
100
AcDbLine
 10
26.6654636018
 20
32.140716823
 30
0.0
 11
26.6654636018
 21
32.042716823
 31
0.0
  0
LINE
  5
20F
330
1F
100
AcDbEntity
  8
0
  6
Continuous
 62
     7
100
AcDbLine
 10
26.6654636018
 20
32.042716823
 30
0.0
 11
26.7954636018
 21
32.042716823
 31
0.0
  0
LINE
  5
210
330
1F
100
AcDbEntity
  8
0
  6
Continuous
 62
     7
100
AcDbLine
 10
26.7954636018
 20
32.042716823
 30
0.0
 11
26.7954636018
 21
29.505716823
 31
0.0
  0
LINE
  5
211
330
1F
100
AcDbEntity
  8
0
  6
Continuous
 62
     7
100
AcDbLine
 10
26.7954636018
 20
29.505716823
 30
0.0
 11
29.6004636018
 21
29.505716823
 31
0.0
  0
LINE
  5
212
330
1F
100
AcDbEntity
  8
0
  6
Continuous
 62
     7
100
AcDbLine
 10
29.6004636018
 20
29.505716823
 30
0.0
 11
29.6004636018
 21
32.042716823
 31
0.0
  0
LINE
  5
213
330
1F
100
AcDbEntity
  8
0
  6
Continuous
 62
     7
100
AcDbLine
 10
29.6004636018
 20
32.042716823
 30
0.0
 11
29.7304636018
 21
32.042716823
 31
0.0
  0
LINE
  5
214
330
1F
100
AcDbEntity
  8
0
  6
Continuous
 62
     7
100
AcDbLine
 10
29.7304636018
 20
32.042716823
 30
0.0
 11
29.7304636018
 21
32.140716823
 31
0.0
  0
LINE
  5
215
330
1F
100
AcDbEntity
  8
0
  6
Continuous
 62
     7
100
AcDbLine
 10
29.7304636018
 20
32.140716823
 30
0.0
 11
26.6654636018
 21
32.140716823
 31
0.0
  0
LINE
  5
216
330
1F
100
AcDbEntity
  8
0
  6
Continuous
 62
     7
100
AcDbLine
 10
27.4302736977
 20
35.6156148678
 30
0.0
 11
27.4302736977
 21
35.5176148678
 31
0.0
  0
LINE
  5
217
330
1F
100
AcDbEntity
  8
0
  6
Continuous
 62
     7
100
AcDbLine
 10
27.4302736977
 20
35.5176148678
 30
0.0
 11
27.5602736977
 21
35.5176148678
 31
0.0
  0
LINE
  5
218
330
1F
100
AcDbEntity
  8
0
  6
Continuous
 62
     7
100
AcDbLine
 10
27.5602736977
 20
35.5176148678
 30
0.0
 11
27.5602736977
 21
32.9806148678
 31
0.0
  0
LINE
  5
219
330
1F
100
AcDbEntity
  8
0
  6
Continuous
 62
     7
100
AcDbLine
 10
27.5602736977
 20
32.9806148678
 30
0.0
 11
30.3652736977
 21
32.9806148678
 31
0.0
  0
LINE
  5
21A
330
1F
100
AcDbEntity
  8
0
  6
Continuous
 62
     7
100
AcDbLine
 10
30.3652736977
 20
32.9806148678
 30
0.0
 11
30.3652736977
 21
35.5176148678
 31
0.0
  0
LINE
  5
21B
330
1F
100
AcDbEntity
  8
0
  6
Continuous
 62
     7
100
AcDbLine
 10
30.3652736977
 20
35.5176148678
 30
0.0
 11
30.4952736977
 21
35.5176148678
 31
0.0
  0
LINE
  5
21C
330
1F
100
AcDbEntity
  8
0
  6
Continuous
 62
     7
100
AcDbLine
 10
30.4952736977
 20
35.5176148678
 30
0.0
 11
30.4952736977
 21
35.6156148678
 31
0.0
  0
LINE
  5
21D
330
1F
100
AcDbEntity
  8
0
  6
Continuous
 62
     7
100
AcDbLine
 10
30.4952736977
 20
35.6156148678
 30
0.0
 11
27.4302736977
 21
35.6156148678
 31
0.0
  0
LINE
  5
21E
330
1F
100
AcDbEntity
  8
0
  6
Continuous
 62
     7
100
AcDbLine
 10
25.2688538613
 20
40.0465255325
 30
0.0
 11
25.2688538613
 21
39.9485255325
 31
0.0
  0
LINE
  5
21F
330
1F
100
AcDbEntity
  8
0
  6
Continuous
 62
     7
100
AcDbLine
 10
25.2688538613
 20
39.9485255325
 30
0.0
 11
25.3988538613
 21
39.9485255325
 31
0.0
  0
LINE
  5
220
330
1F
100
AcDbEntity
  8
0
  6
Continuous
 62
     7
100
AcDbLine
 10
25.3988538613
 20
39.9485255325
 30
0.0
 11
25.3988538613
 21
37.4115255325
 31
0.0
  0
LINE
  5
221
330
1F
100
AcDbEntity
  8
0
  6
Continuous
 62
     7
100
AcDbLine
 10
25.3988538613
 20
37.4115255325
 30
0.0
 11
28.2038538613
 21
37.4115255325
 31
0.0
  0
LINE
  5
222
330
1F
100
AcDbEntity
  8
0
  6
Continuous
 62
     7
100
AcDbLine
 10
28.2038538613
 20
37.4115255325
 30
0.0
 11
28.2038538613
 21
39.9485255325
 31
0.0
  0
LINE
  5
223
330
1F
100
AcDbEntity
  8
0
  6
Continuous
 62
     7
100
AcDbLine
 10
28.2038538613
 20
39.9485255325
 30
0.0
 11
28.3338538613
 21
39.9485255325
 31
0.0
  0
LINE
  5
224
330
1F
100
AcDbEntity
  8
0
  6
Continuous
 62
     7
100
AcDbLine
 10
28.3338538613
 20
39.9485255325
 30
0.0
 11
28.3338538613
 21
40.0465255325
 31
0.0
  0
LINE
  5
225
330
1F
100
AcDbEntity
  8
0
  6
Continuous
 62
     7
100
AcDbLine
 10
28.3338538613
 20
40.0465255325
 30
0.0
 11
25.2688538613
 21
40.0465255325
 31
0.0
  0
LINE
  5
226
330
1F
100
AcDbEntity
  8
0
  6
Continuous
 62
     7
100
AcDbLine
 10
26.0336639572
 20
43.5214235773
 30
0.0
 11
26.0336639572
 21
43.4234235773
 31
0.0
  0
LINE
  5
227
330
1F
100
AcDbEntity
  8
0
  6
Continuous
 62
     7
100
AcDbLine
 10
26.0336639572
 20
43.4234235773
 30
0.0
 11
26.1636639572
 21
43.4234235773
 31
0.0
  0
LINE
  5
228
330
1F
100
AcDbEntity
  8
0
  6
Continuous
 62
     7
100
AcDbLine
 10
26.1636639572
 20
43.4234235773
 30
0.0
 11
26.1636639572
 21
40.8864235773
 31
0.0
  0
LINE
  5
229
330
1F
100
AcDbEntity
  8
0
  6
Continuous
 62
     7
100
AcDbLine
 10
26.1636639572
 20
40.8864235773
 30
0.0
 11
28.9686639572
 21
40.8864235773
 31
0.0
  0
LINE
  5
22A
330
1F
100
AcDbEntity
  8
0
  6
Continuous
 62
     7
100
AcDbLine
 10
28.9686639572
 20
40.8864235773
 30
0.0
 11
28.9686639572
 21
43.4234235773
 31
0.0
  0
LINE
  5
22B
330
1F
100
AcDbEntity
  8
0
  6
Continuous
 62
     7
100
AcDbLine
 10
28.9686639572
 20
43.4234235773
 30
0.0
 11
29.0986639572
 21
43.4234235773
 31
0.0
  0
LINE
  5
22C
330
1F
100
AcDbEntity
  8
0
  6
Continuous
 62
     7
100
AcDbLine
 10
29.0986639572
 20
43.4234235773
 30
0.0
 11
29.0986639572
 21
43.5214235773
 31
0.0
  0
LINE
  5
22D
330
1F
100
AcDbEntity
  8
0
  6
Continuous
 62
     7
100
AcDbLine
 10
29.0986639572
 20
43.5214235773
 30
0.0
 11
26.0336639572
 21
43.5214235773
 31
0.0
  0
LINE
  5
22E
330
1F
100
AcDbEntity
  8
0
  6
Continuous
 62
     7
100
AcDbLine
 10
-10.4841080355
 20
30.7484903432
 30
0.0
 11
-10.4841080355
 21
30.8784903432
 31
0.0
  0
LINE
  5
22F
330
1F
100
AcDbEntity
  8
0
  6
Continuous
 62
     7
100
AcDbLine
 10
-11.8141080355
 20
30.7484903432
 30
0.0
 11
-5.9441080355
 21
30.7484903432
 31
0.0
  0
LINE
  5
230
330
1F
100
AcDbEntity
  8
0
  6
Continuous
 62
     7
100
AcDbLine
 10
-11.8141080355
 20
30.7484903432
 30
0.0
 11
-11.8141080355
 21
25.0084903432
 31
0.0
  0
LINE
  5
231
330
1F
100
AcDbEntity
  8
0
  6
Continuous
 62
     7
100
AcDbLine
 10
-11.8141080355
 20
25.0084903432
 30
0.0
 11
-5.9441080355
 21
25.0084903432
 31
0.0
  0
LINE
  5
232
330
1F
100
AcDbEntity
  8
0
  6
Continuous
 62
     7
100
AcDbLine
 10
-5.9441080355
 20
30.7484903432
 30
0.0
 11
-5.9441080355
 21
25.0084903432
 31
0.0
  0
LINE
  5
233
330
1F
100
AcDbEntity
  8
0
  6
Continuous
 62
     7
100
AcDbLine
 10
-10.4841080355
 20
30.8784903432
 30
0.0
 11
-9.4841080355
 21
30.8784903432
 31
0.0
  0
LINE
  5
234
330
1F
100
AcDbEntity
  8
0
  6
Continuous
 62
     7
100
AcDbLine
 10
-9.4841080355
 20
30.8784903432
 30
0.0
 11
-9.4841080355
 21
30.7484903432
 31
0.0
  0
LINE
  5
235
330
1F
100
AcDbEntity
  8
0
  6
Continuous
 62
     7
100
AcDbLine
 10
-8.1441080355
 20
30.7484903432
 30
0.0
 11
-8.1441080355
 21
30.8784903432
 31
0.0
  0
LINE
  5
236
330
1F
100
AcDbEntity
  8
0
  6
Continuous
 62
     7
100
AcDbLine
 10
-8.1441080355
 20
30.8784903432
 30
0.0
 11
-7.1441080355
 21
30.8784903432
 31
0.0
  0
LINE
  5
237
330
1F
100
AcDbEntity
  8
0
  6
Continuous
 62
     7
100
AcDbLine
 10
-7.1441080355
 20
30.8784903432
 30
0.0
 11
-7.1441080355
 21
30.7484903432
 31
0.0
  0
LINE
  5
238
330
1F
100
AcDbEntity
  8
0
  6
Continuous
 62
     7
100
AcDbLine
 10
-11.8141080355
 20
27.9444903432
 30
0.0
 11
-9.4841080355
 21
27.9444903432
 31
0.0
  0
LINE
  5
239
330
1F
100
AcDbEntity
  8
0
  6
Continuous
 62
     7
100
AcDbLine
 10
-7.1441080355
 20
24.8784903432
 30
0.0
 11
-7.1441080355
 21
25.0084903432
 31
0.0
  0
LINE
  5
23A
330
1F
100
AcDbEntity
  8
0
  6
Continuous
 62
     7
100
AcDbLine
 10
-8.1441080355
 20
24.8784903432
 30
0.0
 11
-7.1441080355
 21
24.8784903432
 31
0.0
  0
LINE
  5
23B
330
1F
100
AcDbEntity
  8
0
  6
Continuous
 62
     7
100
AcDbLine
 10
-8.1441080355
 20
25.0084903432
 30
0.0
 11
-8.1441080355
 21
24.8784903432
 31
0.0
  0
LINE
  5
23C
330
1F
100
AcDbEntity
  8
0
  6
Continuous
 62
     7
100
AcDbLine
 10
-9.4841080355
 20
24.8784903432
 30
0.0
 11
-9.4841080355
 21
25.0084903432
 31
0.0
  0
LINE
  5
23D
330
1F
100
AcDbEntity
  8
0
  6
Continuous
 62
     7
100
AcDbLine
 10
-10.4841080355
 20
24.8784903432
 30
0.0
 11
-9.4841080355
 21
24.8784903432
 31
0.0
  0
LINE
  5
23E
330
1F
100
AcDbEntity
  8
0
  6
Continuous
 62
     7
100
AcDbLine
 10
-10.4841080355
 20
25.0084903432
 30
0.0
 11
-10.4841080355
 21
24.8784903432
 31
0.0
  0
LINE
  5
23F
330
1F
100
AcDbEntity
  8
0
  6
Continuous
 62
     7
100
AcDbLine
 10
-9.4841080355
 20
27.9444903432
 30
0.0
 11
-9.4841080355
 21
27.8124903432
 31
0.0
  0
LINE
  5
240
330
1F
100
AcDbEntity
  8
0
  6
Continuous
 62
     7
100
AcDbLine
 10
-9.4841080355
 20
27.8124903432
 30
0.0
 11
-11.8141080355
 21
27.8124903432
 31
0.0
  0
LINE
  5
241
330
1F
100
AcDbEntity
  8
0
  6
Continuous
 62
     7
100
AcDbLine
 10
-22.6814278798
 20
-0.1155282818
 30
0.0
 11
-22.5514278798
 21
-0.1155282818
 31
0.0
  0
LINE
  5
242
330
1F
100
AcDbEntity
  8
0
  6
Continuous
 62
     7
100
AcDbLine
 10
-22.6814278798
 20
3.3844717182
 30
0.0
 11
-20.3514278798
 21
3.3844717182
 31
0.0
  0
LINE
  5
243
330
1F
100
AcDbEntity
  8
0
  6
Continuous
 62
     7
100
AcDbLine
 10
-22.6814278798
 20
3.3844717182
 30
0.0
 11
-22.6814278798
 21
0.8844717182
 31
0.0
  0
LINE
  5
244
330
1F
100
AcDbEntity
  8
0
  6
Continuous
 62
     7
100
AcDbLine
 10
-22.6814278798
 20
-2.6155282818
 30
0.0
 11
-13.6814278798
 21
-2.6155282818
 31
0.0
  0
LINE
  5
245
330
1F
100
AcDbEntity
  8
0
  6
Continuous
 62
     7
100
AcDbLine
 10
-13.6814278798
 20
3.3844717182
 30
0.0
 11
-13.6814278798
 21
0.8844717182
 31
0.0
  0
LINE
  5
246
330
1F
100
AcDbEntity
  8
0
  6
Continuous
 62
     7
100
AcDbLine
 10
-22.5514278798
 20
-0.1155282818
 30
0.0
 11
-22.5514278798
 21
0.8844717182
 31
0.0
  0
LINE
  5
247
330
1F
100
AcDbEntity
  8
0
  6
Continuous
 62
     7
100
AcDbLine
 10
-22.5514278798
 20
0.8844717182
 30
0.0
 11
-22.6814278798
 21
0.8844717182
 31
0.0
  0
LINE
  5
248
330
1F
100
AcDbEntity
  8
0
  6
Continuous
 62
     7
100
AcDbLine
 10
-20.3514278798
 20
3.3844717182
 30
0.0
 11
-20.3514278798
 21
3.2544717182
 31
0.0
  0
LINE
  5
249
330
1F
100
AcDbEntity
  8
0
  6
Continuous
 62
     7
100
AcDbLine
 10
-20.3514278798
 20
3.2544717182
 30
0.0
 11
-19.3514278798
 21
3.2544717182
 31
0.0
  0
LINE
  5
24A
330
1F
100
AcDbEntity
  8
0
  6
Continuous
 62
     7
100
AcDbLine
 10
-19.3514278798
 20
3.2544717182
 30
0.0
 11
-19.3514278798
 21
3.3844717182
 31
0.0
  0
LINE
  5
24B
330
1F
100
AcDbEntity
  8
0
  6
Continuous
 62
     7
100
AcDbLine
 10
-17.0114278798
 20
3.3844717182
 30
0.0
 11
-17.0114278798
 21
3.2544717182
 31
0.0
  0
LINE
  5
24C
330
1F
100
AcDbEntity
  8
0
  6
Continuous
 62
     7
100
AcDbLine
 10
-17.0114278798
 20
3.2544717182
 30
0.0
 11
-16.0114278798
 21
3.2544717182
 31
0.0
  0
LINE
  5
24D
330
1F
100
AcDbEntity
  8
0
  6
Continuous
 62
     7
100
AcDbLine
 10
-16.0114278798
 20
3.2544717182
 30
0.0
 11
-16.0114278798
 21
3.3844717182
 31
0.0
  0
LINE
  5
24E
330
1F
100
AcDbEntity
  8
0
  6
Continuous
 62
     7
100
AcDbLine
 10
-18.0523220149
 20
3.3844717182
 30
0.0
 11
-19.0523220149
 21
3.3844717182
 31
0.0
  0
LINE
  5
24F
330
1F
100
AcDbEntity
  8
0
  6
Continuous
 62
     7
100
AcDbLine
 10
-19.3514278798
 20
3.3844717182
 30
0.0
 11
-19.0523220149
 21
3.3844717182
 31
0.0
  0
LINE
  5
250
330
1F
100
AcDbEntity
  8
0
  6
Continuous
 62
     7
100
AcDbLine
 10
-13.6814278798
 20
0.8844717182
 30
0.0
 11
-13.8114278798
 21
0.8844717182
 31
0.0
  0
LINE
  5
251
330
1F
100
AcDbEntity
  8
0
  6
Continuous
 62
     7
100
AcDbLine
 10
-13.8114278798
 20
0.8844717182
 30
0.0
 11
-13.8114278798
 21
-0.1155282818
 31
0.0
  0
LINE
  5
252
330
1F
100
AcDbEntity
  8
0
  6
Continuous
 62
     7
100
AcDbLine
 10
-13.8114278798
 20
-0.1155282818
 30
0.0
 11
-13.6814278798
 21
-0.1155282818
 31
0.0
  0
LINE
  5
253
330
1F
100
AcDbEntity
  8
0
  6
Continuous
 62
     7
100
AcDbLine
 10
-18.0523220149
 20
3.3844717182
 30
0.0
 11
-17.0114278798
 21
3.3844717182
 31
0.0
  0
LINE
  5
254
330
1F
100
AcDbEntity
  8
0
  6
Continuous
 62
     7
100
AcDbLine
 10
-16.0114278798
 20
3.3844717182
 30
0.0
 11
-13.6814278798
 21
3.3844717182
 31
0.0
  0
LINE
  5
255
330
1F
100
AcDbEntity
  8
0
  6
Continuous
 62
     7
100
AcDbLine
 10
-13.6814278798
 20
-0.1155282818
 30
0.0
 11
-13.6814278798
 21
-2.6155282818
 31
0.0
  0
LINE
  5
256
330
1F
100
AcDbEntity
  8
0
  6
Continuous
 62
     7
100
AcDbLine
 10
-22.6814278798
 20
-0.1155282818
 30
0.0
 11
-22.6814278798
 21
-2.6155282818
 31
0.0
  0
LINE
  5
257
330
1F
100
AcDbEntity
  8
0
  6
Continuous
 62
     7
100
AcDbLine
 10
-16.5764278798
 20
-0.2855282818
 30
0.0
 11
-16.4464278798
 21
-0.2855282818
 31
0.0
  0
LINE
  5
258
330
1F
100
AcDbEntity
  8
0
  6
Continuous
 62
     7
100
AcDbLine
 10
-16.4464278798
 20
-0.2855282818
 30
0.0
 11
-16.4464278798
 21
-1.2855282818
 31
0.0
  0
LINE
  5
259
330
1F
100
AcDbEntity
  8
0
  6
Continuous
 62
     7
100
AcDbLine
 10
-16.4464278798
 20
-1.2855282818
 30
0.0
 11
-16.5764278798
 21
-1.2855282818
 31
0.0
  0
LINE
  5
25A
330
1F
100
AcDbEntity
  8
0
  6
Continuous
 62
     7
100
AcDbLine
 10
-16.5764278798
 20
-1.2855282818
 30
0.0
 11
-16.5764278798
 21
-0.2855282818
 31
0.0
  0
LINE
  5
25B
330
1F
100
AcDbEntity
  8
0
  6
Continuous
 62
     7
100
AcDbLine
 10
-16.5764278798
 20
1.0544717182
 30
0.0
 11
-16.4464278798
 21
1.0544717182
 31
0.0
  0
LINE
  5
25C
330
1F
100
AcDbEntity
  8
0
  6
Continuous
 62
     7
100
AcDbLine
 10
-16.4464278798
 20
1.0544717182
 30
0.0
 11
-16.4464278798
 21
2.0544717182
 31
0.0
  0
LINE
  5
25D
330
1F
100
AcDbEntity
  8
0
  6
Continuous
 62
     7
100
AcDbLine
 10
-16.4464278798
 20
2.0544717182
 30
0.0
 11
-16.5764278798
 21
2.0544717182
 31
0.0
  0
LINE
  5
25E
330
1F
100
AcDbEntity
  8
0
  6
Continuous
 62
     7
100
AcDbLine
 10
-16.5764278798
 20
2.0544717182
 30
0.0
 11
-16.5764278798
 21
1.0544717182
 31
0.0
  0
LINE
  5
25F
330
1F
100
AcDbEntity
  8
0
  6
Continuous
 62
     7
100
AcDbLine
 10
-19.9164278798
 20
-1.2855282818
 30
0.0
 11
-19.7864278798
 21
-1.2855282818
 31
0.0
  0
LINE
  5
260
330
1F
100
AcDbEntity
  8
0
  6
Continuous
 62
     7
100
AcDbLine
 10
-19.7864278798
 20
-1.2855282818
 30
0.0
 11
-19.7864278798
 21
-0.2855282818
 31
0.0
  0
LINE
  5
261
330
1F
100
AcDbEntity
  8
0
  6
Continuous
 62
     7
100
AcDbLine
 10
-19.9164278798
 20
-0.2855282818
 30
0.0
 11
-19.9164278798
 21
-1.2855282818
 31
0.0
  0
LINE
  5
262
330
1F
100
AcDbEntity
  8
0
  6
Continuous
 62
     7
100
AcDbLine
 10
-19.7864278798
 20
-0.2855282818
 30
0.0
 11
-19.9164278798
 21
-0.2855282818
 31
0.0
  0
LINE
  5
263
330
1F
100
AcDbEntity
  8
0
  6
Continuous
 62
     7
100
AcDbLine
 10
-19.7864278798
 20
1.0544717182
 30
0.0
 11
-19.9164278798
 21
1.0544717182
 31
0.0
  0
LINE
  5
264
330
1F
100
AcDbEntity
  8
0
  6
Continuous
 62
     7
100
AcDbLine
 10
-19.9164278798
 20
1.0544717182
 30
0.0
 11
-19.9164278798
 21
2.0544717182
 31
0.0
  0
LINE
  5
265
330
1F
100
AcDbEntity
  8
0
  6
Continuous
 62
     7
100
AcDbLine
 10
-19.7864278798
 20
2.0544717182
 30
0.0
 11
-19.7864278798
 21
1.0544717182
 31
0.0
  0
LINE
  5
266
330
1F
100
AcDbEntity
  8
0
  6
Continuous
 62
     7
100
AcDbLine
 10
-19.9164278798
 20
2.0544717182
 30
0.0
 11
-19.7864278798
 21
2.0544717182
 31
0.0
  0
POINT
  5
267
330
1F
100
AcDbEntity
  8
0
  6
Continuous
 62
     7
100
AcDbPoint
 10
3.6206342609
 20
17.0212446022
 30
0.0
  0
MTEXT
  5
269
330
1F
100
AcDbEntity
  8
0
  6
Continuous
 62
     7
100
AcDbMText
 10
-22.6814278798
 20
-4.7547933654
 30
0.0
 40
0.1903
 41
0.0
 71
     1
 72
     1
  1
SOLIDWORKS Educational Product.
  7
SLDTEXTSTYLE0
 73
     1
 44
1.0
  0
MTEXT
  5
26A
330
1F
100
AcDbEntity
  8
0
  6
Continuous
 62
     7
100
AcDbMText
 10
-22.6814278798
 20
-5.0402433654
 30
0.0
 40
0.1903
 41
0.0
 71
     1
 72
     1
  1
For Instructional Use Only.
  7
SLDTEXTSTYLE0
 73
     1
 44
1.0
  0
ENDSEC
  0
SECTION
  2
OBJECTS
  0
DICTIONARY
  5
C
330
0
100
AcDbDictionary
281
     1
  3
ACAD_GROUP
350
D
  3
ACAD_LAYOUT
350
1A
  3
ACAD_MLINESTYLE
350
17
  3
ACAD_PLOTSETTINGS
350
19
  3
ACAD_PLOTSTYLENAME
350
E
  3
ACAD_SCALELIST
350
47
  3
DWGPROPS
350
26B
  0
DICTIONARY
  5
D
102
{ACAD_REACTORS
330
C
102
}
330
C
100
AcDbDictionary
281
     1
  0
DICTIONARY
  5
1A
102
{ACAD_REACTORS
330
C
102
}
330
C
100
AcDbDictionary
281
     1
  3
Layout1
350
1E
  3
Layout2
350
26
  3
Model
350
22
  0
DICTIONARY
  5
17
102
{ACAD_REACTORS
330
C
102
}
330
C
100
AcDbDictionary
281
     1
  3
Standard
350
18
  0
DICTIONARY
  5
19
102
{ACAD_REACTORS
330
C
102
}
330
C
100
AcDbDictionary
281
     1
  0
ACDBDICTIONARYWDFLT
  5
E
102
{ACAD_REACTORS
330
C
102
}
330
C
100
AcDbDictionary
281
     1
  3
Normal
350
F
100
AcDbDictionaryWithDefault
340
F
  0
DICTIONARY
  5
47
102
{ACAD_REACTORS
330
C
102
}
330
C
100
AcDbDictionary
281
     1
  3
A0
350
48
  3
A1
350
49
  3
A2
350
4A
  3
A3
350
4B
  3
A4
350
4C
  3
A5
350
4D
  3
A6
350
4E
  3
A7
350
4F
  3
A8
350
50
  3
A9
350
51
  3
B0
350
52
  3
B1
350
53
  3
B2
350
54
  3
B3
350
55
  3
B4
350
56
  3
B5
350
57
  3
B6
350
58
  3
B7
350
59
  3
B8
350
5A
  3
B9
350
5B
  3
C0
350
5C
  3
C1
350
5D
  3
C2
350
5E
  3
C3
350
5F
  3
C4
350
60
  3
C5
350
61
  3
C6
350
62
  3
C7
350
63
  3
C8
350
64
  3
C9
350
65
  3
D0
350
66
  3
D1
350
67
  3
D2
350
68
  0
XRECORD
  5
26B
102
{ACAD_REACTORS
330
C
102
}
330
C
100
AcDbXrecord
280
     1
  1
DWGPROPS COOKIE
  2

  3

  4

  6

  7

  8
rwb2137
  9

300
=
301
=
302
=
303
=
304
=
305
=
306
=
307
=
308
=
309
=
 40
0.0
 41
2459619.140206667
 42
2459619.140302627
  1

 90
        0
  0
LAYOUT
  5
1E
102
{ACAD_REACTORS
330
1A
102
}
330
1A
100
AcDbPlotSettings
  1

  2
none_device
  4

  6

 40
0.0
 41
0.0
 42
0.0
 43
0.0
 44
0.0
 45
0.0
 46
0.0
 47
0.0
 48
0.0
 49
0.0
140
0.0
141
0.0
142
1.0
143
1.0
 70
   688
 72
     0
 73
     0
 74
     5
  7

 75
    16
147
1.0
148
0.0
149
0.0
100
AcDbLayout
  1
Layout1
 70
     1
 71
     1
 10
0.0
 20
0.0
 11
12.0
 21
9.0
 12
0.0
 22
0.0
 32
0.0
 14
1.0000000000E+20
 24
1.0000000000E+20
 34
1.0000000000E+20
 15
-1.0000000000E+20
 25
-1.0000000000E+20
 35
-1.0000000000E+20
146
0.0
 13
0.0
 23
0.0
 33
0.0
 16
1.0
 26
0.0
 36
0.0
 17
0.0
 27
1.0
 37
0.0
 76
     0
330
1B
  0
LAYOUT
  5
26
102
{ACAD_REACTORS
330
1A
102
}
330
1A
100
AcDbPlotSettings
  1

  2
none_device
  4

  6

 40
0.0
 41
0.0
 42
0.0
 43
0.0
 44
0.0
 45
0.0
 46
0.0
 47
0.0
 48
0.0
 49
0.0
140
0.0
141
0.0
142
1.0
143
1.0
 70
   688
 72
     0
 73
     0
 74
     5
  7

 75
    16
147
1.0
148
0.0
149
0.0
100
AcDbLayout
  1
Layout2
 70
     1
 71
     2
 10
0.0
 20
0.0
 11
0.0
 21
0.0
 12
0.0
 22
0.0
 32
0.0
 14
0.0
 24
0.0
 34
0.0
 15
0.0
 25
0.0
 35
0.0
146
0.0
 13
0.0
 23
0.0
 33
0.0
 16
1.0
 26
0.0
 36
0.0
 17
0.0
 27
1.0
 37
0.0
 76
     0
330
23
  0
LAYOUT
  5
22
102
{ACAD_REACTORS
330
1A
102
}
330
1A
100
AcDbPlotSettings
  1

  2
none_device
  4
ANSI_A_(11.00_x_8.50_Inches)
  6

 40
6.35
 41
19.05
 42
6.35000508
 43
19.05000254
 44
279.4
 45
215.9
 46
116.0378595438
 47
2.9208047804
 48
0.0
 49
0.0
140
0.0
141
0.0
142
0.1744544873
143
1.0
 70
  1696
 72
     0
 73
     0
 74
     0
  7

 75
     0
147
0.5913241897
148
-39.4088153714
149
0.0
100
AcDbLayout
  1
Model
 70
     1
 71
     0
 10
0.0
 20
0.0
 11
12.0
 21
9.0
 12
0.0
 22
0.0
 32
0.0
 14
-22.6814278798
 24
-4.7146529563
 34
0.0
 15
30.4952736977
 25
43.5214235773
 35
0.0
146
0.0
 13
0.0
 23
0.0
 33
0.0
 16
1.0
 26
0.0
 36
0.0
 17
0.0
 27
1.0
 37
0.0
 76
     0
330
1F
331
29
  0
MLINESTYLE
  5
18
102
{ACAD_REACTORS
330
17
102
}
330
17
100
AcDbMlineStyle
  2
Standard
 70
     0
  3

 62
   256
 51
90.0
 52
90.0
 71
     2
 49
0.5
 62
   256
  6
BYLAYER
 49
-0.5
 62
   256
  6
BYLAYER
  0
ACDBPLACEHOLDER
  5
F
102
{ACAD_REACTORS
330
E
102
}
330
E
  0
SCALE
  5
48
102
{ACAD_REACTORS
330
47
102
}
330
47
100
AcDbScale
 70
     0
300
1:1
140
1.0
141
1.0
290
     1
  0
SCALE
  5
49
102
{ACAD_REACTORS
330
47
102
}
330
47
100
AcDbScale
 70
     0
300
1:2
140
1.0
141
2.0
290
     0
  0
SCALE
  5
4A
102
{ACAD_REACTORS
330
47
102
}
330
47
100
AcDbScale
 70
     0
300
1:4
140
1.0
141
4.0
290
     0
  0
SCALE
  5
4B
102
{ACAD_REACTORS
330
47
102
}
330
47
100
AcDbScale
 70
     0
300
1:5
140
1.0
141
5.0
290
     0
  0
SCALE
  5
4C
102
{ACAD_REACTORS
330
47
102
}
330
47
100
AcDbScale
 70
     0
300
1:8
140
1.0
141
8.0
290
     0
  0
SCALE
  5
4D
102
{ACAD_REACTORS
330
47
102
}
330
47
100
AcDbScale
 70
     0
300
1:10
140
1.0
141
10.0
290
     0
  0
SCALE
  5
4E
102
{ACAD_REACTORS
330
47
102
}
330
47
100
AcDbScale
 70
     0
300
1:16
140
1.0
141
16.0
290
     0
  0
SCALE
  5
4F
102
{ACAD_REACTORS
330
47
102
}
330
47
100
AcDbScale
 70
     0
300
1:20
140
1.0
141
20.0
290
     0
  0
SCALE
  5
50
102
{ACAD_REACTORS
330
47
102
}
330
47
100
AcDbScale
 70
     0
300
1:30
140
1.0
141
30.0
290
     0
  0
SCALE
  5
51
102
{ACAD_REACTORS
330
47
102
}
330
47
100
AcDbScale
 70
     0
300
1:40
140
1.0
141
40.0
290
     0
  0
SCALE
  5
52
102
{ACAD_REACTORS
330
47
102
}
330
47
100
AcDbScale
 70
     0
300
1:50
140
1.0
141
50.0
290
     0
  0
SCALE
  5
53
102
{ACAD_REACTORS
330
47
102
}
330
47
100
AcDbScale
 70
     0
300
1:100
140
1.0
141
100.0
290
     0
  0
SCALE
  5
54
102
{ACAD_REACTORS
330
47
102
}
330
47
100
AcDbScale
 70
     0
300
2:1
140
2.0
141
1.0
290
     0
  0
SCALE
  5
55
102
{ACAD_REACTORS
330
47
102
}
330
47
100
AcDbScale
 70
     0
300
4:1
140
4.0
141
1.0
290
     0
  0
SCALE
  5
56
102
{ACAD_REACTORS
330
47
102
}
330
47
100
AcDbScale
 70
     0
300
8:1
140
8.0
141
1.0
290
     0
  0
SCALE
  5
57
102
{ACAD_REACTORS
330
47
102
}
330
47
100
AcDbScale
 70
     0
300
10:1
140
10.0
141
1.0
290
     0
  0
SCALE
  5
58
102
{ACAD_REACTORS
330
47
102
}
330
47
100
AcDbScale
 70
     0
300
100:1
140
100.0
141
1.0
290
     0
  0
SCALE
  5
59
102
{ACAD_REACTORS
330
47
102
}
330
47
100
AcDbScale
 70
     0
300
1/128" = 1'-0"
140
0.0078125
141
12.0
290
     0
  0
SCALE
  5
5A
102
{ACAD_REACTORS
330
47
102
}
330
47
100
AcDbScale
 70
     0
300
1/64" = 1'-0"
140
0.015625
141
12.0
290
     0
  0
SCALE
  5
5B
102
{ACAD_REACTORS
330
47
102
}
330
47
100
AcDbScale
 70
     0
300
1/32" = 1'-0"
140
0.03125
141
12.0
290
     0
  0
SCALE
  5
5C
102
{ACAD_REACTORS
330
47
102
}
330
47
100
AcDbScale
 70
     0
300
1/16" = 1'-0"
140
0.0625
141
12.0
290
     0
  0
SCALE
  5
5D
102
{ACAD_REACTORS
330
47
102
}
330
47
100
AcDbScale
 70
     0
300
3/32" = 1'-0"
140
0.09375
141
12.0
290
     0
  0
SCALE
  5
5E
102
{ACAD_REACTORS
330
47
102
}
330
47
100
AcDbScale
 70
     0
300
1/8" = 1'-0"
140
0.125
141
12.0
290
     0
  0
SCALE
  5
5F
102
{ACAD_REACTORS
330
47
102
}
330
47
100
AcDbScale
 70
     0
300
3/16" = 1'-0"
140
0.1875
141
12.0
290
     0
  0
SCALE
  5
60
102
{ACAD_REACTORS
330
47
102
}
330
47
100
AcDbScale
 70
     0
300
1/4" = 1'-0"
140
0.25
141
12.0
290
     0
  0
SCALE
  5
61
102
{ACAD_REACTORS
330
47
102
}
330
47
100
AcDbScale
 70
     0
300
3/8" = 1'-0"
140
0.375
141
12.0
290
     0
  0
SCALE
  5
62
102
{ACAD_REACTORS
330
47
102
}
330
47
100
AcDbScale
 70
     0
300
1/2" = 1'-0"
140
0.5
141
12.0
290
     0
  0
SCALE
  5
63
102
{ACAD_REACTORS
330
47
102
}
330
47
100
AcDbScale
 70
     0
300
3/4" = 1'-0"
140
0.75
141
12.0
290
     0
  0
SCALE
  5
64
102
{ACAD_REACTORS
330
47
102
}
330
47
100
AcDbScale
 70
     0
300
1" = 1'-0"
140
1.0
141
12.0
290
     0
  0
SCALE
  5
65
102
{ACAD_REACTORS
330
47
102
}
330
47
100
AcDbScale
 70
     0
300
1-1/2" = 1'-0"
140
1.5
141
12.0
290
     0
  0
SCALE
  5
66
102
{ACAD_REACTORS
330
47
102
}
330
47
100
AcDbScale
 70
     0
300
3" = 1'-0"
140
3.0
141
12.0
290
     0
  0
SCALE
  5
67
102
{ACAD_REACTORS
330
47
102
}
330
47
100
AcDbScale
 70
     0
300
6" = 1'-0"
140
6.0
141
12.0
290
     0
  0
SCALE
  5
68
102
{ACAD_REACTORS
330
47
102
}
330
47
100
AcDbScale
 70
     0
300
1'-0" = 1'-0"
140
12.0
141
12.0
290
     0
  0
ENDSEC
  0
EOF
